<?xml version="1.0" encoding="UTF-8" standalone="no"?>
<!-- Created with Inkscape (http://www.inkscape.org/) -->

<svg
   width="512"
   height="512"
   viewBox="0 0 512 512"
   version="1.1"
   id="svg1"
   xml:space="preserve"
   inkscape:version="1.3 (0e150ed6c4, 2023-07-21)"
   sodipodi:docname="logo512q.svg"
   xmlns:inkscape="http://www.inkscape.org/namespaces/inkscape"
   xmlns:sodipodi="http://sodipodi.sourceforge.net/DTD/sodipodi-0.dtd"
   xmlns="http://www.w3.org/2000/svg"
   xmlns:svg="http://www.w3.org/2000/svg"><sodipodi:namedview
     id="namedview1"
     pagecolor="#ffffff"
     bordercolor="#000000"
     borderopacity="0.25"
     inkscape:showpageshadow="2"
     inkscape:pageopacity="0.0"
     inkscape:pagecheckerboard="0"
     inkscape:deskcolor="#d1d1d1"
     inkscape:document-units="px"
     inkscape:zoom="1.4142136"
     inkscape:cx="219.91021"
     inkscape:cy="246.42671"
     inkscape:window-width="1920"
     inkscape:window-height="991"
     inkscape:window-x="-9"
     inkscape:window-y="-9"
     inkscape:window-maximized="1"
     inkscape:current-layer="svg1" /><defs
     id="defs1"><clipPath
       clipPathUnits="userSpaceOnUse"
       id="clipPath104"><path
         id="path105"
         style="fill:#ff0000;fill-opacity:1;fill-rule:nonzero;stroke:none"
         d="M 21.695312,51.560547 V 212.89062 c 0.5012,0.3432 0.999256,0.69022 1.50586,1.0254 1.383514,0.88075 2.788288,1.72629 4.199219,2.5625 1.621528,0.97414 3.35443,1.74815 5.076171,2.52539 2.01424,0.94548 4.103223,1.71887 6.179688,2.51367 1.659636,0.6058 3.314125,1.22336 4.980469,1.81054 1.427758,0.49114 2.870795,0.9454 4.326172,1.34766 1.609699,0.46443 3.22497,0.9066 4.859375,1.27539 0.395548,0.0893 0.728283,0.2167 1.013672,0.36719 1.162256,0.17917 2.328343,0.3334 3.488281,0.5293 2.431419,0.42187 4.865202,0.83138 7.300781,1.22851 2.662006,0.43662 5.315603,0.92759 7.972656,1.39258 3.005279,0.53308 6.02023,1.00851 9.03711,1.4707 3.266092,0.53937 6.54938,0.96701 9.822265,1.46094 2.157583,0.35383 4.3243,0.63846 6.492188,0.91602 0.421338,0.0127 0.842478,0.0251 1.263672,0.0371 0.199666,-0.0169 0.412626,-0.0208 0.642578,-0.008 0.205151,0.0118 0.410111,0.0234 0.615231,0.0352 2.84774,0.0659 5.69664,0.0946 8.54492,0.11328 2.11392,0.0122 4.22786,0.0161 6.3418,0.0195 1.44793,-0.0817 2.89184,-0.20822 4.32617,-0.41797 0.90867,-0.40718 1.78699,-0.88279 2.63282,-1.40625 0.79332,-0.50336 1.45012,-1.16427 2.07031,-1.86133 0.57329,-0.75199 1.24639,-1.4132 1.9375,-2.05468 0.72148,-0.66967 1.43034,-0.94528 2.01953,-0.94336 0.73997,0.002 1.2892,0.44499 1.43945,1.0957 0.22162,-0.0633 0.4411,-0.12199 0.63868,-0.1289 1.80359,-0.0632 2.49765,2.06703 0.21874,3.57812 -0.54281,0.35994 -1.07552,0.73195 -1.5957,1.12109 0.34806,-0.088 0.68328,-0.15251 0.97461,-0.15234 2.39448,0.001 2.79166,2.70657 -0.14648,3.57031 -1.06218,0.31225 -2.12427,0.65843 -3.23243,0.76367 -0.38586,0.0511 -0.77356,0.0902 -1.16015,0.13477 2.35164,0.92589 1.66696,3.66011 -1.42969,3.24414 -0.30571,-0.041 -0.3693,-0.0501 -0.47461,-0.0644 -0.38859,0.58024 -1.24606,0.99207 -2.54101,0.87304 -0.52363,-0.0481 -1.04826,-0.0902 -1.57227,-0.13476 2.34737,1.04003 1.52642,3.76416 -1.56055,3.17578 -0.46997,-0.0896 -0.94017,-0.17798 -1.41015,-0.26758 -3.73547,-0.70252 -7.44902,-1.50236 -11.15821,-2.33203 -4.0409,-0.88172 -8.076759,-1.78929 -12.130855,-2.60937 -0.002,-4.1e-4 -0.0039,-0.002 -0.0059,-0.002 -0.448541,-0.0106 -0.896936,-0.0266 -1.345704,-0.0312 -1.344412,-0.0182 -2.688678,-0.0176 -4.033203,-0.0156 -1.546793,0.002 -2.40829,-0.68667 -2.58789,-1.45703 -1.511913,-0.28143 -3.01681,-0.60042 -4.533203,-0.85743 -4.67532,-0.7984 -9.350126,-1.61212 -14.009766,-2.49804 -6.675739,-1.26435 -13.33571,-2.60125 -20.005859,-3.89453 -2.922341,-0.58549 -5.847298,-1.16562 -8.753907,-1.82618 -2.13168,-0.48445 -1.368701,-0.34026 -3.271484,-0.78515 -0.373861,-0.0874 -0.75022,-0.1666 -1.125,-0.25 -1.197012,-0.23669 -2.407442,-0.46733 -3.632812,-0.45313 -2.188309,0.0254 -3.009227,-1.34665 -2.460938,-2.38867 -1.94694,-0.90322 -3.869507,-1.85783 -5.742188,-2.90625 v 60.44922 H 221.17383 V 51.560547 Z m 0,165.580073 v 0.10547 c 0.03846,0.0233 0.07676,0.047 0.115235,0.0703 0.521853,0.31246 1.063597,0.58925 1.59375,0.88671 -0.57315,-0.34886 -1.141563,-0.70432 -1.708985,-1.0625 z" /></clipPath></defs><g
     inkscape:groupmode="layer"
     id="layer7"
     inkscape:label="солнце"><ellipse
       style="opacity:1;fill:#000000;fill-opacity:1;stroke:none;stroke-width:4.4;stroke-linecap:square;stroke-linejoin:round;stroke-dasharray:none;stroke-opacity:1"
       id="path129"
       cx="256.0625"
       cy="414.25"
       rx="42.3125"
       ry="16.5" /><path
       style="opacity:1;fill:#000000;fill-opacity:1;stroke:#000000;stroke-width:4.4;stroke-linecap:round;stroke-linejoin:round;stroke-dasharray:none;stroke-opacity:1"
       d="M 256,399.25 V 354.375"
       id="path130" /><path
       style="opacity:1;fill:#000000;fill-opacity:1;stroke:#000000;stroke-width:4.4;stroke-linecap:round;stroke-linejoin:round;stroke-dasharray:none;stroke-opacity:1"
       d="m 263.125,400.5 9.5,-57.5"
       id="path131" /><path
       style="fill:#000000;fill-opacity:1;stroke:#000000;stroke-width:4.4;stroke-linecap:round;stroke-linejoin:round;stroke-dasharray:none;stroke-opacity:1"
       d="m 249.47639,400.97386 -9.5,-57.5"
       id="path131-6" /><path
       style="opacity:1;fill:#000000;fill-opacity:1;stroke:#000000;stroke-width:4.4;stroke-linecap:round;stroke-linejoin:round;stroke-dasharray:none;stroke-opacity:1"
       d="M 280.625,404.625 C 281,404 301.25,346.5 301.25,346.5"
       id="path132" /><path
       style="fill:#000000;fill-opacity:1;stroke:#000000;stroke-width:4.4;stroke-linecap:round;stroke-linejoin:round;stroke-dasharray:none;stroke-opacity:1"
       d="m 227.32753,405.56764 c -0.375,-0.625 -20.625,-58.125 -20.625,-58.125"
       id="path132-6" /><path
       style="opacity:1;fill:#000000;fill-opacity:1;stroke:#000000;stroke-width:4.4;stroke-linecap:round;stroke-linejoin:round;stroke-dasharray:none;stroke-opacity:1"
       d="m 285.5,407.625 23.75,-46.75"
       id="path135" /><path
       style="fill:#000000;fill-opacity:1;stroke:#000000;stroke-width:4.4;stroke-linecap:round;stroke-linejoin:round;stroke-dasharray:none;stroke-opacity:1"
       d="m 222.56165,410.79924 -23.75,-46.75"
       id="path135-1" /><path
       style="opacity:1;fill:#000000;fill-opacity:1;stroke:#000000;stroke-width:4.4;stroke-linecap:round;stroke-linejoin:round;stroke-dasharray:none;stroke-opacity:1"
       d="M 292.75,413.25 329,355.75"
       id="path133" /><path
       style="fill:#000000;fill-opacity:1;stroke:#000000;stroke-width:4.4;stroke-linecap:round;stroke-linejoin:round;stroke-dasharray:none;stroke-opacity:1"
       d="m 216.37358,415.0033 -36.25,-57.5"
       id="path133-5" /><path
       style="opacity:1;fill:#000000;fill-opacity:1;stroke:#000000;stroke-width:4.4;stroke-linecap:round;stroke-linejoin:round;stroke-dasharray:none;stroke-opacity:1"
       d="m 271.75,401.75 11,-45.375"
       id="path134" /><path
       style="fill:#000000;fill-opacity:1;stroke:#000000;stroke-width:4.4;stroke-linecap:round;stroke-linejoin:round;stroke-dasharray:none;stroke-opacity:1"
       d="m 238.4807,400.34277 -11,-45.375"
       id="path134-1" /></g><g
     inkscape:groupmode="layer"
     id="layer6"
     inkscape:label="низ"
     style="display:inline;opacity:1"><path
       style="opacity:1;fill:#000000;fill-opacity:1;stroke:none;stroke-width:4.4;stroke-linecap:square;stroke-linejoin:round;stroke-dasharray:none;stroke-opacity:1"
       d="m 156.80093,445.12372 c 0,0 1.93672,-10.32227 97.58074,-10.42983 95.64401,-0.10755 99.70205,10.42983 99.70205,10.42983 0,0 -0.0632,14.94074 -1.11839,20.43976 -1.05518,5.49902 -4.18491,12.4407 -4.18491,12.4407 0,0 -40.20503,-10.58048 -94.90542,-10.36612 -54.70039,0.21437 -93.00821,10.36612 -93.00821,10.36612 0,0 -2.64549,-7.92826 -3.42803,-13.42646 -0.78254,-5.4982 -0.63783,-19.454 -0.63783,-19.454 z"
       id="path126"
       sodipodi:nodetypes="czczczczc" /><path
       style="opacity:1;fill:#000000;fill-opacity:1;stroke:none;stroke-width:4.4;stroke-linecap:square;stroke-linejoin:round;stroke-dasharray:none;stroke-opacity:1"
       d="m 162.63456,481.53972 12.05929,-3.35518 14.45721,-2.30168 c 0,0 -0.7071,10.42983 -11.66725,12.02082 -12.11664,1.75887 -14.84925,-6.36396 -14.84925,-6.36396 z"
       id="path127"
       sodipodi:nodetypes="cccsc" /><path
       style="opacity:1;fill:#000000;fill-opacity:1;stroke:none;stroke-width:4.4;stroke-linecap:square;stroke-linejoin:round;stroke-dasharray:none;stroke-opacity:1"
       d="m 347.89653,481.53972 -12.05929,-3.35518 -14.45721,-2.30168 c 0,0 0.7071,10.42983 11.66725,12.02082 12.11664,1.75887 14.84925,-6.36396 14.84925,-6.36396 z"
       id="path128"
       sodipodi:nodetypes="cccsc" /></g><g
     inkscape:groupmode="layer"
     id="layer4"
     inkscape:label="ветвь1"
     clip-path="url(#clipPath104)"><path
       style="opacity:1;fill:#000000;fill-opacity:1;stroke:#000000;stroke-width:2;stroke-linecap:square;stroke-dasharray:none;stroke-opacity:1"
       d="m 148.67841,94.215399 c 0,0 10.66802,-20.325372 26.95077,-27.736834 16.28276,-7.411461 37.50649,-6.737692 43.23353,-12.91391 5.72704,-6.176218 -8.08523,18.19177 -26.3893,22.683565 -18.30406,4.491795 -21.56061,4.940973 -43.795,17.967179 z"
       id="path20"
       sodipodi:nodetypes="csssc" /><path
       style="display:inline;opacity:1;fill:#000000;fill-opacity:1;stroke:#000000;stroke-width:2;stroke-linecap:square;stroke-dasharray:none;stroke-opacity:1"
       d="m 115.13648,128.79405 c 0,0 7.62283,-11.43425 33.50868,-14.45162 25.88586,-3.01737 33.6675,-21.756822 35.41439,-25.727045 0,0 -16.32733,9.208058 -31.28536,11.275431 -19.5335,2.699754 -20.96277,9.528534 -20.96277,9.528534 0,0 8.41687,-39.225802 37.95533,-47.325057 0,0 -40.5129,8.590593 -47.16625,31.602977 -3.46307,11.97797 -3.33499,25.40943 -7.46402,35.09678 z"
       id="path22"
       sodipodi:nodetypes="cscsccsc" /><path
       style="opacity:1;fill:#000000;fill-opacity:1;stroke:#000000;stroke-width:2;stroke-linecap:square;stroke-dasharray:none;stroke-opacity:1"
       d="m 87.13161,175.86728 c 0,0 -3.828862,-19.2602 -1.277083,-40.12885 2.930857,-23.96878 19.912223,-45.058529 35.316693,-54.110638 0,0 -12.66745,24.927688 -12.46884,41.170048 0.12469,10.19716 -16.609156,43.10768 -16.609156,43.10768 0,0 13.197096,-21.86582 28.601566,-31.39435 15.40447,-9.52854 37.00249,-12.70471 37.00249,-12.70471 0,0 -17.0248,25.30366 -36.10607,32.67142 -15.53479,5.99837 -21.44802,7.83835 -34.4596,21.3894 z"
       id="path23"
       sodipodi:nodetypes="cscscscsc" /><path
       style="opacity:1;fill:#000000;fill-opacity:1;stroke:#000000;stroke-width:2;stroke-linecap:square;stroke-dasharray:none;stroke-opacity:1"
       d="m 146.20793,149.57677 c 0,0 -6.4795,12.86323 -29.64585,19.98849 -20.08692,6.17812 -35.485181,24.48028 -35.485181,24.48028 1.572128,-22.90816 -8.854763,-27.63827 -8.085231,-49.18516 0.898359,-25.15404 15.272102,-38.85402 15.272102,-38.85402 0,0 -29.815941,16.06147 -39.4733,55.36468 -4.755379,53.10172 16.07689,41.0332 20.821066,69.16703 0,0 5.330321,-13.92268 33.915934,-23.76884 10.86025,-3.74075 23.89612,-13.56803 30.59491,-23.48152 10.9333,-16.18011 12.08555,-33.71094 12.08555,-33.71094 z"
       id="path24"
       sodipodi:nodetypes="cccscscssc" /><path
       style="display:inline;opacity:1;fill:#000000;fill-opacity:1;stroke:#000000;stroke-width:2;stroke-linecap:square;stroke-dasharray:none;stroke-opacity:1"
       d="m 51.431052,280.73718 c 0,0 5.165564,-35.70977 -18.191769,-57.94415 -23.3573341,-22.23439 -0.67377,-53.90154 -0.67377,-53.90154 0,0 -7.143663,20.4217 13.518593,42.4315 20.662257,22.0098 19.94528,41.11589 19.94528,56.38799 0,0 -3.818026,-30.31962 31.667154,-45.59172 35.48518,-15.2721 36.60813,-31.21798 36.60813,-31.21798 0,0 2.02131,32.34093 -23.13274,49.40975 -25.154057,17.06882 -36.158954,39.52779 -36.158954,39.52779 z"
       id="path25"
       sodipodi:nodetypes="cscscscscc" /></g><g
     inkscape:groupmode="layer"
     id="g110"
     inkscape:label="ветвь2"
     clip-path="url(#clipPath104)"
     transform="matrix(-1,0,0,1,512.98406,0)"><path
       style="opacity:1;fill:#000000;fill-opacity:1;stroke:#000000;stroke-width:2;stroke-linecap:square;stroke-dasharray:none;stroke-opacity:1"
       d="m 148.67841,94.215399 c 0,0 10.66802,-20.325372 26.95077,-27.736834 16.28276,-7.411461 37.50649,-6.737692 43.23353,-12.91391 5.72704,-6.176218 -8.08523,18.19177 -26.3893,22.683565 -18.30406,4.491795 -21.56061,4.940973 -43.795,17.967179 z"
       id="path106"
       sodipodi:nodetypes="csssc" /><path
       style="display:inline;opacity:1;fill:#000000;fill-opacity:1;stroke:#000000;stroke-width:2;stroke-linecap:square;stroke-dasharray:none;stroke-opacity:1"
       d="m 115.13648,128.79405 c 0,0 7.62283,-11.43425 33.50868,-14.45162 25.88586,-3.01737 33.6675,-21.756822 35.41439,-25.727045 0,0 -16.32733,9.208058 -31.28536,11.275431 -19.5335,2.699754 -20.96277,9.528534 -20.96277,9.528534 0,0 8.41687,-39.225802 37.95533,-47.325057 0,0 -40.5129,8.590593 -47.16625,31.602977 -3.46307,11.97797 -3.33499,25.40943 -7.46402,35.09678 z"
       id="path107"
       sodipodi:nodetypes="cscsccsc" /><path
       style="opacity:1;fill:#000000;fill-opacity:1;stroke:#000000;stroke-width:2;stroke-linecap:square;stroke-dasharray:none;stroke-opacity:1"
       d="m 87.13161,175.86728 c 0,0 -3.828862,-19.2602 -1.277083,-40.12885 2.930857,-23.96878 19.912223,-45.058529 35.316693,-54.110638 0,0 -12.66745,24.927688 -12.46884,41.170048 0.12469,10.19716 -16.609156,43.10768 -16.609156,43.10768 0,0 13.197096,-21.86582 28.601566,-31.39435 15.40447,-9.52854 37.00249,-12.70471 37.00249,-12.70471 0,0 -17.0248,25.30366 -36.10607,32.67142 -15.53479,5.99837 -21.44802,7.83835 -34.4596,21.3894 z"
       id="path108"
       sodipodi:nodetypes="cscscscsc" /><path
       style="opacity:1;fill:#000000;fill-opacity:1;stroke:#000000;stroke-width:2;stroke-linecap:square;stroke-dasharray:none;stroke-opacity:1"
       d="m 146.20793,149.57677 c 0,0 -6.4795,12.86323 -29.64585,19.98849 -20.08692,6.17812 -35.485181,24.48028 -35.485181,24.48028 1.572128,-22.90816 -8.854763,-27.63827 -8.085231,-49.18516 0.898359,-25.15404 15.272102,-38.85402 15.272102,-38.85402 0,0 -29.815941,16.06147 -39.4733,55.36468 -4.755379,53.10172 16.07689,41.0332 20.821066,69.16703 0,0 5.330321,-13.92268 33.915934,-23.76884 10.86025,-3.74075 23.89612,-13.56803 30.59491,-23.48152 10.9333,-16.18011 12.08555,-33.71094 12.08555,-33.71094 z"
       id="path109"
       sodipodi:nodetypes="cccscscssc" /><path
       style="display:inline;opacity:1;fill:#000000;fill-opacity:1;stroke:#000000;stroke-width:2;stroke-linecap:square;stroke-dasharray:none;stroke-opacity:1"
       d="m 51.431052,280.73718 c 0,0 5.165564,-35.70977 -18.191769,-57.94415 -23.3573341,-22.23439 -0.67377,-53.90154 -0.67377,-53.90154 0,0 -7.143663,20.4217 13.518593,42.4315 20.662257,22.0098 19.94528,41.11589 19.94528,56.38799 0,0 -3.818026,-30.31962 31.667154,-45.59172 35.48518,-15.2721 36.60813,-31.21798 36.60813,-31.21798 0,0 2.02131,32.34093 -23.13274,49.40975 -25.154057,17.06882 -36.158954,39.52779 -36.158954,39.52779 z"
       id="path110"
       sodipodi:nodetypes="cscscscscc" /></g><g
     inkscape:groupmode="layer"
     id="layer5"
     inkscape:label="лента1"
     style="stroke:none"><path
       style="opacity:1;fill:#000000;fill-opacity:1;stroke:none;stroke-width:4.6;stroke-linecap:square;stroke-linejoin:round;stroke-dasharray:none;stroke-opacity:1"
       d="m 13.816377,220.90323 c 0,0 -2.032117,16.82739 0.360894,33.12014 1.978871,13.47308 6.914392,26.55662 8.49581,31.44464 0,0 31.845287,3.99492 54.748612,2.87452 23.608037,-1.15487 53.779387,5.87592 53.779387,5.87592 0,0 -10.8239,-11.14153 -11.30033,-29.24575 -0.47643,-18.10421 0.15881,-24.85359 0.15881,-24.85359 l -51.355384,-6.88647 z"
       id="path31"
       sodipodi:nodetypes="cscscsccc" /><path
       style="opacity:1;fill:#000000;fill-opacity:1;stroke:none;stroke-width:2;stroke-linecap:square;stroke-linejoin:round;stroke-dasharray:none;stroke-opacity:1"
       d="m 153.47988,338.17001 c 0,0 -9.91661,7.39823 -54.06549,6.12776 -10.081129,-0.2901 -43.672454,5.3995 -43.672454,5.3995 -8.893301,-0.79404 -14.068446,-12.28925 -16.039703,-20.96278 -3.176179,-13.97519 -8.575682,-34.46154 -8.575682,-34.46154 0,0 17.945409,2.6692 42.401985,1.08112 24.092918,-1.56448 59.076924,1.45983 65.111664,8.1298 0,0 4.27194,8.52551 7.28925,16.38456 6.82878,17.78661 7.55043,18.30158 7.55043,18.30158 z"
       id="path32"
       sodipodi:nodetypes="cscscscsc" /><path
       style="opacity:1;fill:#000000;fill-opacity:1;stroke:none;stroke-width:4.4;stroke-linecap:square;stroke-linejoin:round;stroke-dasharray:none;stroke-opacity:1"
       d="m 183.26524,380.23044 c 0,0 -21.11144,12.35244 -40.42616,17.29341 -19.31471,4.94098 -41.5491,17.74259 -41.5491,17.74259 0,0 -13.475389,-14.59833 -17.967184,-28.97208 -5.326403,-17.04448 -17.74259,-30.31961 -17.74259,-30.31961 0,0 20.09415,-5.74686 38.629434,-4.94098 20.66226,0.89836 33.79253,-0.29839 47.61303,-5.39015 0,0 11.67866,12.35244 14.59833,17.518 2.91967,5.16557 16.84424,17.06882 16.84424,17.06882 z"
       id="path33"
       sodipodi:nodetypes="cscscscsc" /><path
       style="display:inline;opacity:1;fill:#000000;fill-opacity:1;stroke:none;stroke-width:4.4;stroke-linecap:square;stroke-linejoin:round;stroke-dasharray:none;stroke-opacity:1"
       d="m 213.36026,427.84347 c 0,0 -4.71638,-6.73769 -7.63605,-17.74259 -2.91967,-11.0049 -20.43767,-19.53931 -20.43767,-19.53931 0,0 -29.42125,14.14915 -37.0573,15.49669 -7.63605,1.34754 -27.62455,7.86064 -30.09503,12.12785 0,0 7.41146,4.04261 13.47538,13.25079 6.06392,9.20818 32.11634,0.67377 32.11634,0.67377 0,0 46.26548,-9.20817 49.63433,-4.2672 z"
       id="path34"
       sodipodi:nodetypes="cscscscc" /></g><g
     inkscape:groupmode="layer"
     id="g45"
     inkscape:label="лента2"
     style="stroke:none"
     transform="matrix(-1,0,0,1,516.37161,0)"><path
       style="opacity:1;fill:#000000;fill-opacity:1;stroke:none;stroke-width:4.6;stroke-linecap:square;stroke-linejoin:round;stroke-dasharray:none;stroke-opacity:1"
       d="m 13.816377,220.90323 c 0,0 -2.032117,16.82739 0.360894,33.12014 1.978871,13.47308 6.914392,26.55662 8.49581,31.44464 0,0 31.845287,3.99492 54.748612,2.87452 23.608037,-1.15487 53.779387,5.87592 53.779387,5.87592 0,0 -10.8239,-11.14153 -11.30033,-29.24575 -0.47643,-18.10421 0.15881,-24.85359 0.15881,-24.85359 l -51.355384,-6.88647 z"
       id="path42"
       sodipodi:nodetypes="cscscsccc" /><path
       style="opacity:1;fill:#000000;fill-opacity:1;stroke:none;stroke-width:2;stroke-linecap:square;stroke-linejoin:round;stroke-dasharray:none;stroke-opacity:1"
       d="m 153.47988,338.17001 c 0,0 -9.91661,7.39823 -54.06549,6.12776 -10.081129,-0.2901 -43.672454,5.3995 -43.672454,5.3995 -8.893301,-0.79404 -14.068446,-12.28925 -16.039703,-20.96278 -3.176179,-13.97519 -8.575682,-34.46154 -8.575682,-34.46154 0,0 17.945409,2.6692 42.401985,1.08112 24.092918,-1.56448 59.076924,1.45983 65.111664,8.1298 0,0 4.27194,8.52551 7.28925,16.38456 6.82878,17.78661 7.55043,18.30158 7.55043,18.30158 z"
       id="path43"
       sodipodi:nodetypes="cscscscsc" /><path
       style="opacity:1;fill:#000000;fill-opacity:1;stroke:none;stroke-width:4.4;stroke-linecap:square;stroke-linejoin:round;stroke-dasharray:none;stroke-opacity:1"
       d="m 183.26524,380.23044 c 0,0 -21.11144,12.35244 -40.42616,17.29341 -19.31471,4.94098 -41.5491,17.74259 -41.5491,17.74259 0,0 -13.475389,-14.59833 -17.967184,-28.97208 -5.326403,-17.04448 -17.74259,-30.31961 -17.74259,-30.31961 0,0 20.09415,-5.74686 38.629434,-4.94098 20.66226,0.89836 33.79253,-0.29839 47.61303,-5.39015 0,0 11.67866,12.35244 14.59833,17.518 2.91967,5.16557 16.84424,17.06882 16.84424,17.06882 z"
       id="path44"
       sodipodi:nodetypes="cscscscsc" /><path
       style="display:inline;opacity:1;fill:#000000;fill-opacity:1;stroke:none;stroke-width:4.4;stroke-linecap:square;stroke-linejoin:round;stroke-dasharray:none;stroke-opacity:1"
       d="m 213.36026,427.84347 c 0,0 -4.71638,-6.73769 -7.63605,-17.74259 -2.91967,-11.0049 -20.43767,-19.53931 -20.43767,-19.53931 0,0 -29.42125,14.14915 -37.0573,15.49669 -7.63605,1.34754 -27.62455,7.86064 -30.09503,12.12785 0,0 7.41146,4.04261 13.47538,13.25079 6.06392,9.20818 32.11634,0.67377 32.11634,0.67377 0,0 46.26548,-9.20817 49.63433,-4.2672 z"
       id="path45"
       sodipodi:nodetypes="cscscscc" /></g><g
     inkscape:groupmode="layer"
     id="layer2"
     inkscape:label="глобус"><ellipse
       style="fill:#000000;stroke-width:5.681;fill-opacity:0;stroke:#000000;stroke-opacity:1;stroke-dasharray:none"
       id="path1"
       cx="256.03235"
       cy="221.89467"
       rx="114.0916"
       ry="115.43913" /><path
       style="fill:#000000;fill-opacity:0;stroke:#000000;stroke-width:5.681;stroke-dasharray:none;stroke-opacity:1"
       d="m 255.58313,106.45554 c 0,232.2258 0.89836,232.2258 0.89836,232.2258"
       id="path6" /><path
       style="fill:#000000;fill-opacity:0;stroke:#000000;stroke-width:5.681;stroke-dasharray:none;stroke-opacity:1"
       d="m 142.3899,222.34385 h 227.734 l 0.44918,4.04261"
       id="path7" /><path
       style="fill:#000000;fill-opacity:0;stroke:#000000;stroke-width:5.681;stroke-dasharray:none;stroke-opacity:1"
       d="m 165.74723,295.11093 c 0,0 27.21477,-29.64585 89.8359,-29.64585 62.62113,0 87.59,29.64585 87.59,29.64585 v 1.34754"
       id="path8"
       sodipodi:nodetypes="czcc" /><path
       style="fill:#000000;fill-opacity:0;stroke:#000000;stroke-width:5.681;stroke-dasharray:none;stroke-opacity:1"
       d="m 165.74723,146.86046 c 0,0 27.21477,29.64585 89.8359,29.64585 62.62113,0 87.59,-29.64585 87.59,-29.64585 v -1.34754"
       id="path11"
       sodipodi:nodetypes="czcc" /><path
       style="fill:#000000;fill-opacity:0;stroke:#000000;stroke-width:5.681;stroke-dasharray:none;stroke-opacity:1"
       d="m 255.58313,106.90472 c 0,0 -64.23267,29.76084 -64.23267,114.98995 0,85.22911 64.23267,114.98995 64.23267,114.98995"
       id="path12"
       sodipodi:nodetypes="czc" /><path
       style="fill:#000000;fill-opacity:0;stroke:#000000;stroke-width:5.681;stroke-dasharray:none;stroke-opacity:1"
       d="m 254.38595,107.3539 c 0,0 64.23267,29.76084 64.23267,114.98995 0,85.22911 -64.23267,114.98995 -64.23267,114.98995"
       id="path15"
       sodipodi:nodetypes="czc" /></g><g
     inkscape:groupmode="layer"
     id="layer3"
     inkscape:label="загрузка"
     style="stroke:#000000;stroke-opacity:1"><path
       style="fill:#000000;fill-opacity:0;stroke:#000000;stroke-width:34.9769;stroke-dasharray:none;stroke-opacity:1"
       d="M 255.58313,157.21282 V 270.40605"
       id="path16" /><path
       style="fill:#000000;fill-opacity:1;stroke:#000000;stroke-width:2.49024;stroke-linecap:square;stroke-dasharray:none;stroke-opacity:1"
       d="m 254.78913,247.45164 h 42.32833 l -41.30973,40.97137 -41.30974,-40.97137 h 44.59188"
       id="path18" /><path
       style="opacity:1;fill:#000000;fill-opacity:1;stroke:#000000;stroke-width:11.181;stroke-linecap:square;stroke-dasharray:none;stroke-opacity:1"
       d="m 201.68159,293.08962 c 0.89836,0 106.00636,-0.67377 106.00636,-0.67377"
       id="path19" /></g><path
     sodipodi:type="star"
     style="stroke:none;stroke-opacity:1;display:inline;opacity:1;fill:#000000;fill-opacity:1;stroke-width:4.4;stroke-linecap:square;stroke-linejoin:round;stroke-dasharray:none"
     id="path123"
     inkscape:flatsided="false"
     sodipodi:sides="5"
     sodipodi:cx="256.25"
     sodipodi:cy="71"
     sodipodi:r1="36.503424"
     sodipodi:r2="12.824976"
     sodipodi:arg1="-1.5844941"
     sodipodi:arg2="-0.95617556"
     inkscape:rounded="0"
     inkscape:randomized="0"
     d="m 255.75,34.499999 7.89551,26.022096 27.16355,-1.276744 -22.30864,15.550343 9.60825,25.439536 -21.683,-16.411457 -21.22532,16.999237 8.9078,-25.693176 -22.72622,-14.933426 27.18833,0.532197 z"
     inkscape:transform-center-x="-0.28867919"
     inkscape:transform-center-y="-0.29749391" /></svg>
