<?xml version="1.0" encoding="UTF-8"?>
<svg xmlns="http://www.w3.org/2000/svg" xmlns:xlink="http://www.w3.org/1999/xlink" width="64px" height="64px" viewBox="0 0 64 64" version="1.1">
<defs>
<clipPath id="clip1">
  <path d="M 18 6 L 28 6 L 28 12 L 18 12 Z M 18 6 "/>
</clipPath>
<clipPath id="clip2">
  <path d="M 2.710938 6.445312 L 2.710938 26.609375 C 2.773438 26.652344 2.835938 26.699219 2.898438 26.738281 C 3.074219 26.847656 3.25 26.957031 3.425781 27.058594 C 3.628906 27.179688 3.84375 27.277344 4.058594 27.375 C 4.3125 27.492188 4.574219 27.589844 4.832031 27.691406 C 5.039062 27.765625 5.246094 27.84375 5.453125 27.914062 C 5.632812 27.976562 5.8125 28.035156 5.996094 28.085938 C 6.195312 28.140625 6.398438 28.199219 6.601562 28.242188 C 6.652344 28.253906 6.695312 28.269531 6.730469 28.289062 C 6.875 28.3125 7.019531 28.332031 7.164062 28.355469 C 7.46875 28.410156 7.773438 28.460938 8.078125 28.507812 C 8.410156 28.5625 8.742188 28.625 9.074219 28.683594 C 9.449219 28.75 9.828125 28.808594 10.203125 28.867188 C 10.613281 28.933594 11.023438 28.988281 11.433594 29.050781 C 11.703125 29.09375 11.972656 29.128906 12.242188 29.164062 C 12.296875 29.167969 12.347656 29.167969 12.402344 29.167969 C 12.425781 29.167969 12.453125 29.167969 12.480469 29.167969 C 12.507812 29.167969 12.53125 29.171875 12.558594 29.171875 C 12.914062 29.179688 13.269531 29.183594 13.625 29.1875 C 13.890625 29.1875 14.15625 29.1875 14.417969 29.1875 C 14.601562 29.179688 14.78125 29.164062 14.960938 29.136719 C 15.074219 29.085938 15.183594 29.027344 15.289062 28.960938 C 15.390625 28.898438 15.472656 28.816406 15.546875 28.726562 C 15.621094 28.632812 15.703125 28.550781 15.789062 28.472656 C 15.878906 28.386719 15.96875 28.351562 16.042969 28.355469 C 16.136719 28.355469 16.203125 28.410156 16.222656 28.492188 C 16.25 28.484375 16.277344 28.476562 16.304688 28.472656 C 16.527344 28.464844 16.613281 28.734375 16.328125 28.921875 C 16.261719 28.96875 16.195312 29.011719 16.128906 29.0625 C 16.175781 29.050781 16.214844 29.042969 16.253906 29.042969 C 16.550781 29.042969 16.601562 29.382812 16.234375 29.488281 C 16.101562 29.527344 15.96875 29.570312 15.828125 29.585938 C 15.78125 29.589844 15.734375 29.597656 15.683594 29.601562 C 15.980469 29.71875 15.894531 30.058594 15.507812 30.007812 C 15.46875 30 15.460938 30 15.445312 30 C 15.398438 30.070312 15.292969 30.121094 15.128906 30.109375 C 15.0625 30.101562 15 30.097656 14.933594 30.089844 C 15.226562 30.222656 15.125 30.5625 14.738281 30.488281 C 14.679688 30.476562 14.621094 30.464844 14.5625 30.453125 C 14.09375 30.367188 13.628906 30.265625 13.167969 30.164062 C 12.660156 30.054688 12.15625 29.941406 11.652344 29.835938 C 11.648438 29.835938 11.648438 29.835938 11.648438 29.835938 C 11.59375 29.835938 11.539062 29.832031 11.480469 29.832031 C 11.3125 29.832031 11.144531 29.832031 10.976562 29.832031 C 10.785156 29.832031 10.675781 29.746094 10.652344 29.648438 C 10.464844 29.613281 10.277344 29.574219 10.085938 29.542969 C 9.503906 29.441406 8.917969 29.339844 8.335938 29.230469 C 7.5 29.070312 6.667969 28.90625 5.835938 28.742188 C 5.46875 28.667969 5.105469 28.597656 4.742188 28.515625 C 4.472656 28.453125 4.570312 28.472656 4.332031 28.417969 C 4.285156 28.40625 4.238281 28.394531 4.191406 28.386719 C 4.042969 28.355469 3.890625 28.328125 3.738281 28.328125 C 3.464844 28.332031 3.359375 28.160156 3.429688 28.03125 C 3.1875 27.917969 2.945312 27.796875 2.710938 27.667969 L 2.710938 35.222656 L 27.648438 35.222656 L 27.648438 6.445312 Z M 2.710938 27.140625 L 2.710938 27.15625 C 2.714844 27.160156 2.722656 27.160156 2.726562 27.164062 C 2.792969 27.203125 2.859375 27.238281 2.925781 27.273438 C 2.855469 27.230469 2.78125 27.1875 2.710938 27.140625 Z M 2.710938 27.140625 "/>
</clipPath>
<clipPath id="clip3">
  <path d="M 17 6 L 28 6 L 28 14 L 17 14 Z M 17 6 "/>
</clipPath>
<clipPath id="clip4">
  <path d="M 2.710938 6.445312 L 2.710938 26.609375 C 2.773438 26.652344 2.835938 26.699219 2.898438 26.738281 C 3.074219 26.847656 3.25 26.957031 3.425781 27.058594 C 3.628906 27.179688 3.84375 27.277344 4.058594 27.375 C 4.3125 27.492188 4.574219 27.589844 4.832031 27.691406 C 5.039062 27.765625 5.246094 27.84375 5.453125 27.914062 C 5.632812 27.976562 5.8125 28.035156 5.996094 28.085938 C 6.195312 28.140625 6.398438 28.199219 6.601562 28.242188 C 6.652344 28.253906 6.695312 28.269531 6.730469 28.289062 C 6.875 28.3125 7.019531 28.332031 7.164062 28.355469 C 7.46875 28.410156 7.773438 28.460938 8.078125 28.507812 C 8.410156 28.5625 8.742188 28.625 9.074219 28.683594 C 9.449219 28.75 9.828125 28.808594 10.203125 28.867188 C 10.613281 28.933594 11.023438 28.988281 11.433594 29.050781 C 11.703125 29.09375 11.972656 29.128906 12.242188 29.164062 C 12.296875 29.167969 12.347656 29.167969 12.402344 29.167969 C 12.425781 29.167969 12.453125 29.167969 12.480469 29.167969 C 12.507812 29.167969 12.53125 29.171875 12.558594 29.171875 C 12.914062 29.179688 13.269531 29.183594 13.625 29.1875 C 13.890625 29.1875 14.15625 29.1875 14.417969 29.1875 C 14.601562 29.179688 14.78125 29.164062 14.960938 29.136719 C 15.074219 29.085938 15.183594 29.027344 15.289062 28.960938 C 15.390625 28.898438 15.472656 28.816406 15.546875 28.726562 C 15.621094 28.632812 15.703125 28.550781 15.789062 28.472656 C 15.878906 28.386719 15.96875 28.351562 16.042969 28.355469 C 16.136719 28.355469 16.203125 28.410156 16.222656 28.492188 C 16.25 28.484375 16.277344 28.476562 16.304688 28.472656 C 16.527344 28.464844 16.613281 28.734375 16.328125 28.921875 C 16.261719 28.96875 16.195312 29.011719 16.128906 29.0625 C 16.175781 29.050781 16.214844 29.042969 16.253906 29.042969 C 16.550781 29.042969 16.601562 29.382812 16.234375 29.488281 C 16.101562 29.527344 15.96875 29.570312 15.828125 29.585938 C 15.78125 29.589844 15.734375 29.597656 15.683594 29.601562 C 15.980469 29.71875 15.894531 30.058594 15.507812 30.007812 C 15.46875 30 15.460938 30 15.445312 30 C 15.398438 30.070312 15.292969 30.121094 15.128906 30.109375 C 15.0625 30.101562 15 30.097656 14.933594 30.089844 C 15.226562 30.222656 15.125 30.5625 14.738281 30.488281 C 14.679688 30.476562 14.621094 30.464844 14.5625 30.453125 C 14.09375 30.367188 13.628906 30.265625 13.167969 30.164062 C 12.660156 30.054688 12.15625 29.941406 11.652344 29.835938 C 11.648438 29.835938 11.648438 29.835938 11.648438 29.835938 C 11.59375 29.835938 11.539062 29.832031 11.480469 29.832031 C 11.3125 29.832031 11.144531 29.832031 10.976562 29.832031 C 10.785156 29.832031 10.675781 29.746094 10.652344 29.648438 C 10.464844 29.613281 10.277344 29.574219 10.085938 29.542969 C 9.503906 29.441406 8.917969 29.339844 8.335938 29.230469 C 7.5 29.070312 6.667969 28.90625 5.835938 28.742188 C 5.46875 28.667969 5.105469 28.597656 4.742188 28.515625 C 4.472656 28.453125 4.570312 28.472656 4.332031 28.417969 C 4.285156 28.40625 4.238281 28.394531 4.191406 28.386719 C 4.042969 28.355469 3.890625 28.328125 3.738281 28.328125 C 3.464844 28.332031 3.359375 28.160156 3.429688 28.03125 C 3.1875 27.917969 2.945312 27.796875 2.710938 27.667969 L 2.710938 35.222656 L 27.648438 35.222656 L 27.648438 6.445312 Z M 2.710938 27.140625 L 2.710938 27.15625 C 2.714844 27.160156 2.722656 27.160156 2.726562 27.164062 C 2.792969 27.203125 2.859375 27.238281 2.925781 27.273438 C 2.855469 27.230469 2.78125 27.1875 2.710938 27.140625 Z M 2.710938 27.140625 "/>
</clipPath>
<clipPath id="clip5">
  <path d="M 14 7 L 24 7 L 24 17 L 14 17 Z M 14 7 "/>
</clipPath>
<clipPath id="clip6">
  <path d="M 2.710938 6.445312 L 2.710938 26.609375 C 2.773438 26.652344 2.835938 26.699219 2.898438 26.738281 C 3.074219 26.847656 3.25 26.957031 3.425781 27.058594 C 3.628906 27.179688 3.84375 27.277344 4.058594 27.375 C 4.3125 27.492188 4.574219 27.589844 4.832031 27.691406 C 5.039062 27.765625 5.246094 27.84375 5.453125 27.914062 C 5.632812 27.976562 5.8125 28.035156 5.996094 28.085938 C 6.195312 28.140625 6.398438 28.199219 6.601562 28.242188 C 6.652344 28.253906 6.695312 28.269531 6.730469 28.289062 C 6.875 28.3125 7.019531 28.332031 7.164062 28.355469 C 7.46875 28.410156 7.773438 28.460938 8.078125 28.507812 C 8.410156 28.5625 8.742188 28.625 9.074219 28.683594 C 9.449219 28.75 9.828125 28.808594 10.203125 28.867188 C 10.613281 28.933594 11.023438 28.988281 11.433594 29.050781 C 11.703125 29.09375 11.972656 29.128906 12.242188 29.164062 C 12.296875 29.167969 12.347656 29.167969 12.402344 29.167969 C 12.425781 29.167969 12.453125 29.167969 12.480469 29.167969 C 12.507812 29.167969 12.53125 29.171875 12.558594 29.171875 C 12.914062 29.179688 13.269531 29.183594 13.625 29.1875 C 13.890625 29.1875 14.15625 29.1875 14.417969 29.1875 C 14.601562 29.179688 14.78125 29.164062 14.960938 29.136719 C 15.074219 29.085938 15.183594 29.027344 15.289062 28.960938 C 15.390625 28.898438 15.472656 28.816406 15.546875 28.726562 C 15.621094 28.632812 15.703125 28.550781 15.789062 28.472656 C 15.878906 28.386719 15.96875 28.351562 16.042969 28.355469 C 16.136719 28.355469 16.203125 28.410156 16.222656 28.492188 C 16.25 28.484375 16.277344 28.476562 16.304688 28.472656 C 16.527344 28.464844 16.613281 28.734375 16.328125 28.921875 C 16.261719 28.96875 16.195312 29.011719 16.128906 29.0625 C 16.175781 29.050781 16.214844 29.042969 16.253906 29.042969 C 16.550781 29.042969 16.601562 29.382812 16.234375 29.488281 C 16.101562 29.527344 15.96875 29.570312 15.828125 29.585938 C 15.78125 29.589844 15.734375 29.597656 15.683594 29.601562 C 15.980469 29.71875 15.894531 30.058594 15.507812 30.007812 C 15.46875 30 15.460938 30 15.445312 30 C 15.398438 30.070312 15.292969 30.121094 15.128906 30.109375 C 15.0625 30.101562 15 30.097656 14.933594 30.089844 C 15.226562 30.222656 15.125 30.5625 14.738281 30.488281 C 14.679688 30.476562 14.621094 30.464844 14.5625 30.453125 C 14.09375 30.367188 13.628906 30.265625 13.167969 30.164062 C 12.660156 30.054688 12.15625 29.941406 11.652344 29.835938 C 11.648438 29.835938 11.648438 29.835938 11.648438 29.835938 C 11.59375 29.835938 11.539062 29.832031 11.480469 29.832031 C 11.3125 29.832031 11.144531 29.832031 10.976562 29.832031 C 10.785156 29.832031 10.675781 29.746094 10.652344 29.648438 C 10.464844 29.613281 10.277344 29.574219 10.085938 29.542969 C 9.503906 29.441406 8.917969 29.339844 8.335938 29.230469 C 7.5 29.070312 6.667969 28.90625 5.835938 28.742188 C 5.46875 28.667969 5.105469 28.597656 4.742188 28.515625 C 4.472656 28.453125 4.570312 28.472656 4.332031 28.417969 C 4.285156 28.40625 4.238281 28.394531 4.191406 28.386719 C 4.042969 28.355469 3.890625 28.328125 3.738281 28.328125 C 3.464844 28.332031 3.359375 28.160156 3.429688 28.03125 C 3.1875 27.917969 2.945312 27.796875 2.710938 27.667969 L 2.710938 35.222656 L 27.648438 35.222656 L 27.648438 6.445312 Z M 2.710938 27.140625 L 2.710938 27.15625 C 2.714844 27.160156 2.722656 27.160156 2.726562 27.164062 C 2.792969 27.203125 2.859375 27.238281 2.925781 27.273438 C 2.855469 27.230469 2.78125 27.1875 2.710938 27.140625 Z M 2.710938 27.140625 "/>
</clipPath>
<clipPath id="clip7">
  <path d="M 12 6 L 25 6 L 25 18 L 12 18 Z M 12 6 "/>
</clipPath>
<clipPath id="clip8">
  <path d="M 2.710938 6.445312 L 2.710938 26.609375 C 2.773438 26.652344 2.835938 26.699219 2.898438 26.738281 C 3.074219 26.847656 3.25 26.957031 3.425781 27.058594 C 3.628906 27.179688 3.84375 27.277344 4.058594 27.375 C 4.3125 27.492188 4.574219 27.589844 4.832031 27.691406 C 5.039062 27.765625 5.246094 27.84375 5.453125 27.914062 C 5.632812 27.976562 5.8125 28.035156 5.996094 28.085938 C 6.195312 28.140625 6.398438 28.199219 6.601562 28.242188 C 6.652344 28.253906 6.695312 28.269531 6.730469 28.289062 C 6.875 28.3125 7.019531 28.332031 7.164062 28.355469 C 7.46875 28.410156 7.773438 28.460938 8.078125 28.507812 C 8.410156 28.5625 8.742188 28.625 9.074219 28.683594 C 9.449219 28.75 9.828125 28.808594 10.203125 28.867188 C 10.613281 28.933594 11.023438 28.988281 11.433594 29.050781 C 11.703125 29.09375 11.972656 29.128906 12.242188 29.164062 C 12.296875 29.167969 12.347656 29.167969 12.402344 29.167969 C 12.425781 29.167969 12.453125 29.167969 12.480469 29.167969 C 12.507812 29.167969 12.53125 29.171875 12.558594 29.171875 C 12.914062 29.179688 13.269531 29.183594 13.625 29.1875 C 13.890625 29.1875 14.15625 29.1875 14.417969 29.1875 C 14.601562 29.179688 14.78125 29.164062 14.960938 29.136719 C 15.074219 29.085938 15.183594 29.027344 15.289062 28.960938 C 15.390625 28.898438 15.472656 28.816406 15.546875 28.726562 C 15.621094 28.632812 15.703125 28.550781 15.789062 28.472656 C 15.878906 28.386719 15.96875 28.351562 16.042969 28.355469 C 16.136719 28.355469 16.203125 28.410156 16.222656 28.492188 C 16.25 28.484375 16.277344 28.476562 16.304688 28.472656 C 16.527344 28.464844 16.613281 28.734375 16.328125 28.921875 C 16.261719 28.96875 16.195312 29.011719 16.128906 29.0625 C 16.175781 29.050781 16.214844 29.042969 16.253906 29.042969 C 16.550781 29.042969 16.601562 29.382812 16.234375 29.488281 C 16.101562 29.527344 15.96875 29.570312 15.828125 29.585938 C 15.78125 29.589844 15.734375 29.597656 15.683594 29.601562 C 15.980469 29.71875 15.894531 30.058594 15.507812 30.007812 C 15.46875 30 15.460938 30 15.445312 30 C 15.398438 30.070312 15.292969 30.121094 15.128906 30.109375 C 15.0625 30.101562 15 30.097656 14.933594 30.089844 C 15.226562 30.222656 15.125 30.5625 14.738281 30.488281 C 14.679688 30.476562 14.621094 30.464844 14.5625 30.453125 C 14.09375 30.367188 13.628906 30.265625 13.167969 30.164062 C 12.660156 30.054688 12.15625 29.941406 11.652344 29.835938 C 11.648438 29.835938 11.648438 29.835938 11.648438 29.835938 C 11.59375 29.835938 11.539062 29.832031 11.480469 29.832031 C 11.3125 29.832031 11.144531 29.832031 10.976562 29.832031 C 10.785156 29.832031 10.675781 29.746094 10.652344 29.648438 C 10.464844 29.613281 10.277344 29.574219 10.085938 29.542969 C 9.503906 29.441406 8.917969 29.339844 8.335938 29.230469 C 7.5 29.070312 6.667969 28.90625 5.835938 28.742188 C 5.46875 28.667969 5.105469 28.597656 4.742188 28.515625 C 4.472656 28.453125 4.570312 28.472656 4.332031 28.417969 C 4.285156 28.40625 4.238281 28.394531 4.191406 28.386719 C 4.042969 28.355469 3.890625 28.328125 3.738281 28.328125 C 3.464844 28.332031 3.359375 28.160156 3.429688 28.03125 C 3.1875 27.917969 2.945312 27.796875 2.710938 27.667969 L 2.710938 35.222656 L 27.648438 35.222656 L 27.648438 6.445312 Z M 2.710938 27.140625 L 2.710938 27.15625 C 2.714844 27.160156 2.722656 27.160156 2.726562 27.164062 C 2.792969 27.203125 2.859375 27.238281 2.925781 27.273438 C 2.855469 27.230469 2.78125 27.1875 2.710938 27.140625 Z M 2.710938 27.140625 "/>
</clipPath>
<clipPath id="clip9">
  <path d="M 10 10 L 20 10 L 20 22 L 10 22 Z M 10 10 "/>
</clipPath>
<clipPath id="clip10">
  <path d="M 2.710938 6.445312 L 2.710938 26.609375 C 2.773438 26.652344 2.835938 26.699219 2.898438 26.738281 C 3.074219 26.847656 3.25 26.957031 3.425781 27.058594 C 3.628906 27.179688 3.84375 27.277344 4.058594 27.375 C 4.3125 27.492188 4.574219 27.589844 4.832031 27.691406 C 5.039062 27.765625 5.246094 27.84375 5.453125 27.914062 C 5.632812 27.976562 5.8125 28.035156 5.996094 28.085938 C 6.195312 28.140625 6.398438 28.199219 6.601562 28.242188 C 6.652344 28.253906 6.695312 28.269531 6.730469 28.289062 C 6.875 28.3125 7.019531 28.332031 7.164062 28.355469 C 7.46875 28.410156 7.773438 28.460938 8.078125 28.507812 C 8.410156 28.5625 8.742188 28.625 9.074219 28.683594 C 9.449219 28.75 9.828125 28.808594 10.203125 28.867188 C 10.613281 28.933594 11.023438 28.988281 11.433594 29.050781 C 11.703125 29.09375 11.972656 29.128906 12.242188 29.164062 C 12.296875 29.167969 12.347656 29.167969 12.402344 29.167969 C 12.425781 29.167969 12.453125 29.167969 12.480469 29.167969 C 12.507812 29.167969 12.53125 29.171875 12.558594 29.171875 C 12.914062 29.179688 13.269531 29.183594 13.625 29.1875 C 13.890625 29.1875 14.15625 29.1875 14.417969 29.1875 C 14.601562 29.179688 14.78125 29.164062 14.960938 29.136719 C 15.074219 29.085938 15.183594 29.027344 15.289062 28.960938 C 15.390625 28.898438 15.472656 28.816406 15.546875 28.726562 C 15.621094 28.632812 15.703125 28.550781 15.789062 28.472656 C 15.878906 28.386719 15.96875 28.351562 16.042969 28.355469 C 16.136719 28.355469 16.203125 28.410156 16.222656 28.492188 C 16.25 28.484375 16.277344 28.476562 16.304688 28.472656 C 16.527344 28.464844 16.613281 28.734375 16.328125 28.921875 C 16.261719 28.96875 16.195312 29.011719 16.128906 29.0625 C 16.175781 29.050781 16.214844 29.042969 16.253906 29.042969 C 16.550781 29.042969 16.601562 29.382812 16.234375 29.488281 C 16.101562 29.527344 15.96875 29.570312 15.828125 29.585938 C 15.78125 29.589844 15.734375 29.597656 15.683594 29.601562 C 15.980469 29.71875 15.894531 30.058594 15.507812 30.007812 C 15.46875 30 15.460938 30 15.445312 30 C 15.398438 30.070312 15.292969 30.121094 15.128906 30.109375 C 15.0625 30.101562 15 30.097656 14.933594 30.089844 C 15.226562 30.222656 15.125 30.5625 14.738281 30.488281 C 14.679688 30.476562 14.621094 30.464844 14.5625 30.453125 C 14.09375 30.367188 13.628906 30.265625 13.167969 30.164062 C 12.660156 30.054688 12.15625 29.941406 11.652344 29.835938 C 11.648438 29.835938 11.648438 29.835938 11.648438 29.835938 C 11.59375 29.835938 11.539062 29.832031 11.480469 29.832031 C 11.3125 29.832031 11.144531 29.832031 10.976562 29.832031 C 10.785156 29.832031 10.675781 29.746094 10.652344 29.648438 C 10.464844 29.613281 10.277344 29.574219 10.085938 29.542969 C 9.503906 29.441406 8.917969 29.339844 8.335938 29.230469 C 7.5 29.070312 6.667969 28.90625 5.835938 28.742188 C 5.46875 28.667969 5.105469 28.597656 4.742188 28.515625 C 4.472656 28.453125 4.570312 28.472656 4.332031 28.417969 C 4.285156 28.40625 4.238281 28.394531 4.191406 28.386719 C 4.042969 28.355469 3.890625 28.328125 3.738281 28.328125 C 3.464844 28.332031 3.359375 28.160156 3.429688 28.03125 C 3.1875 27.917969 2.945312 27.796875 2.710938 27.667969 L 2.710938 35.222656 L 27.648438 35.222656 L 27.648438 6.445312 Z M 2.710938 27.140625 L 2.710938 27.15625 C 2.714844 27.160156 2.722656 27.160156 2.726562 27.164062 C 2.792969 27.203125 2.859375 27.238281 2.925781 27.273438 C 2.855469 27.230469 2.78125 27.1875 2.710938 27.140625 Z M 2.710938 27.140625 "/>
</clipPath>
<clipPath id="clip11">
  <path d="M 9 8 L 22 8 L 22 24 L 9 24 Z M 9 8 "/>
</clipPath>
<clipPath id="clip12">
  <path d="M 2.710938 6.445312 L 2.710938 26.609375 C 2.773438 26.652344 2.835938 26.699219 2.898438 26.738281 C 3.074219 26.847656 3.25 26.957031 3.425781 27.058594 C 3.628906 27.179688 3.84375 27.277344 4.058594 27.375 C 4.3125 27.492188 4.574219 27.589844 4.832031 27.691406 C 5.039062 27.765625 5.246094 27.84375 5.453125 27.914062 C 5.632812 27.976562 5.8125 28.035156 5.996094 28.085938 C 6.195312 28.140625 6.398438 28.199219 6.601562 28.242188 C 6.652344 28.253906 6.695312 28.269531 6.730469 28.289062 C 6.875 28.3125 7.019531 28.332031 7.164062 28.355469 C 7.46875 28.410156 7.773438 28.460938 8.078125 28.507812 C 8.410156 28.5625 8.742188 28.625 9.074219 28.683594 C 9.449219 28.75 9.828125 28.808594 10.203125 28.867188 C 10.613281 28.933594 11.023438 28.988281 11.433594 29.050781 C 11.703125 29.09375 11.972656 29.128906 12.242188 29.164062 C 12.296875 29.167969 12.347656 29.167969 12.402344 29.167969 C 12.425781 29.167969 12.453125 29.167969 12.480469 29.167969 C 12.507812 29.167969 12.53125 29.171875 12.558594 29.171875 C 12.914062 29.179688 13.269531 29.183594 13.625 29.1875 C 13.890625 29.1875 14.15625 29.1875 14.417969 29.1875 C 14.601562 29.179688 14.78125 29.164062 14.960938 29.136719 C 15.074219 29.085938 15.183594 29.027344 15.289062 28.960938 C 15.390625 28.898438 15.472656 28.816406 15.546875 28.726562 C 15.621094 28.632812 15.703125 28.550781 15.789062 28.472656 C 15.878906 28.386719 15.96875 28.351562 16.042969 28.355469 C 16.136719 28.355469 16.203125 28.410156 16.222656 28.492188 C 16.25 28.484375 16.277344 28.476562 16.304688 28.472656 C 16.527344 28.464844 16.613281 28.734375 16.328125 28.921875 C 16.261719 28.96875 16.195312 29.011719 16.128906 29.0625 C 16.175781 29.050781 16.214844 29.042969 16.253906 29.042969 C 16.550781 29.042969 16.601562 29.382812 16.234375 29.488281 C 16.101562 29.527344 15.96875 29.570312 15.828125 29.585938 C 15.78125 29.589844 15.734375 29.597656 15.683594 29.601562 C 15.980469 29.71875 15.894531 30.058594 15.507812 30.007812 C 15.46875 30 15.460938 30 15.445312 30 C 15.398438 30.070312 15.292969 30.121094 15.128906 30.109375 C 15.0625 30.101562 15 30.097656 14.933594 30.089844 C 15.226562 30.222656 15.125 30.5625 14.738281 30.488281 C 14.679688 30.476562 14.621094 30.464844 14.5625 30.453125 C 14.09375 30.367188 13.628906 30.265625 13.167969 30.164062 C 12.660156 30.054688 12.15625 29.941406 11.652344 29.835938 C 11.648438 29.835938 11.648438 29.835938 11.648438 29.835938 C 11.59375 29.835938 11.539062 29.832031 11.480469 29.832031 C 11.3125 29.832031 11.144531 29.832031 10.976562 29.832031 C 10.785156 29.832031 10.675781 29.746094 10.652344 29.648438 C 10.464844 29.613281 10.277344 29.574219 10.085938 29.542969 C 9.503906 29.441406 8.917969 29.339844 8.335938 29.230469 C 7.5 29.070312 6.667969 28.90625 5.835938 28.742188 C 5.46875 28.667969 5.105469 28.597656 4.742188 28.515625 C 4.472656 28.453125 4.570312 28.472656 4.332031 28.417969 C 4.285156 28.40625 4.238281 28.394531 4.191406 28.386719 C 4.042969 28.355469 3.890625 28.328125 3.738281 28.328125 C 3.464844 28.332031 3.359375 28.160156 3.429688 28.03125 C 3.1875 27.917969 2.945312 27.796875 2.710938 27.667969 L 2.710938 35.222656 L 27.648438 35.222656 L 27.648438 6.445312 Z M 2.710938 27.140625 L 2.710938 27.15625 C 2.714844 27.160156 2.722656 27.160156 2.726562 27.164062 C 2.792969 27.203125 2.859375 27.238281 2.925781 27.273438 C 2.855469 27.230469 2.78125 27.1875 2.710938 27.140625 Z M 2.710938 27.140625 "/>
</clipPath>
<clipPath id="clip13">
  <path d="M 6 13 L 19 13 L 19 29 L 6 29 Z M 6 13 "/>
</clipPath>
<clipPath id="clip14">
  <path d="M 2.710938 6.445312 L 2.710938 26.609375 C 2.773438 26.652344 2.835938 26.699219 2.898438 26.738281 C 3.074219 26.847656 3.25 26.957031 3.425781 27.058594 C 3.628906 27.179688 3.84375 27.277344 4.058594 27.375 C 4.3125 27.492188 4.574219 27.589844 4.832031 27.691406 C 5.039062 27.765625 5.246094 27.84375 5.453125 27.914062 C 5.632812 27.976562 5.8125 28.035156 5.996094 28.085938 C 6.195312 28.140625 6.398438 28.199219 6.601562 28.242188 C 6.652344 28.253906 6.695312 28.269531 6.730469 28.289062 C 6.875 28.3125 7.019531 28.332031 7.164062 28.355469 C 7.46875 28.410156 7.773438 28.460938 8.078125 28.507812 C 8.410156 28.5625 8.742188 28.625 9.074219 28.683594 C 9.449219 28.75 9.828125 28.808594 10.203125 28.867188 C 10.613281 28.933594 11.023438 28.988281 11.433594 29.050781 C 11.703125 29.09375 11.972656 29.128906 12.242188 29.164062 C 12.296875 29.167969 12.347656 29.167969 12.402344 29.167969 C 12.425781 29.167969 12.453125 29.167969 12.480469 29.167969 C 12.507812 29.167969 12.53125 29.171875 12.558594 29.171875 C 12.914062 29.179688 13.269531 29.183594 13.625 29.1875 C 13.890625 29.1875 14.15625 29.1875 14.417969 29.1875 C 14.601562 29.179688 14.78125 29.164062 14.960938 29.136719 C 15.074219 29.085938 15.183594 29.027344 15.289062 28.960938 C 15.390625 28.898438 15.472656 28.816406 15.546875 28.726562 C 15.621094 28.632812 15.703125 28.550781 15.789062 28.472656 C 15.878906 28.386719 15.96875 28.351562 16.042969 28.355469 C 16.136719 28.355469 16.203125 28.410156 16.222656 28.492188 C 16.25 28.484375 16.277344 28.476562 16.304688 28.472656 C 16.527344 28.464844 16.613281 28.734375 16.328125 28.921875 C 16.261719 28.96875 16.195312 29.011719 16.128906 29.0625 C 16.175781 29.050781 16.214844 29.042969 16.253906 29.042969 C 16.550781 29.042969 16.601562 29.382812 16.234375 29.488281 C 16.101562 29.527344 15.96875 29.570312 15.828125 29.585938 C 15.78125 29.589844 15.734375 29.597656 15.683594 29.601562 C 15.980469 29.71875 15.894531 30.058594 15.507812 30.007812 C 15.46875 30 15.460938 30 15.445312 30 C 15.398438 30.070312 15.292969 30.121094 15.128906 30.109375 C 15.0625 30.101562 15 30.097656 14.933594 30.089844 C 15.226562 30.222656 15.125 30.5625 14.738281 30.488281 C 14.679688 30.476562 14.621094 30.464844 14.5625 30.453125 C 14.09375 30.367188 13.628906 30.265625 13.167969 30.164062 C 12.660156 30.054688 12.15625 29.941406 11.652344 29.835938 C 11.648438 29.835938 11.648438 29.835938 11.648438 29.835938 C 11.59375 29.835938 11.539062 29.832031 11.480469 29.832031 C 11.3125 29.832031 11.144531 29.832031 10.976562 29.832031 C 10.785156 29.832031 10.675781 29.746094 10.652344 29.648438 C 10.464844 29.613281 10.277344 29.574219 10.085938 29.542969 C 9.503906 29.441406 8.917969 29.339844 8.335938 29.230469 C 7.5 29.070312 6.667969 28.90625 5.835938 28.742188 C 5.46875 28.667969 5.105469 28.597656 4.742188 28.515625 C 4.472656 28.453125 4.570312 28.472656 4.332031 28.417969 C 4.285156 28.40625 4.238281 28.394531 4.191406 28.386719 C 4.042969 28.355469 3.890625 28.328125 3.738281 28.328125 C 3.464844 28.332031 3.359375 28.160156 3.429688 28.03125 C 3.1875 27.917969 2.945312 27.796875 2.710938 27.667969 L 2.710938 35.222656 L 27.648438 35.222656 L 27.648438 6.445312 Z M 2.710938 27.140625 L 2.710938 27.15625 C 2.714844 27.160156 2.722656 27.160156 2.726562 27.164062 C 2.792969 27.203125 2.859375 27.238281 2.925781 27.273438 C 2.855469 27.230469 2.78125 27.1875 2.710938 27.140625 Z M 2.710938 27.140625 "/>
</clipPath>
<clipPath id="clip15">
  <path d="M 4 11 L 20 11 L 20 31 L 4 31 Z M 4 11 "/>
</clipPath>
<clipPath id="clip16">
  <path d="M 2.710938 6.445312 L 2.710938 26.609375 C 2.773438 26.652344 2.835938 26.699219 2.898438 26.738281 C 3.074219 26.847656 3.25 26.957031 3.425781 27.058594 C 3.628906 27.179688 3.84375 27.277344 4.058594 27.375 C 4.3125 27.492188 4.574219 27.589844 4.832031 27.691406 C 5.039062 27.765625 5.246094 27.84375 5.453125 27.914062 C 5.632812 27.976562 5.8125 28.035156 5.996094 28.085938 C 6.195312 28.140625 6.398438 28.199219 6.601562 28.242188 C 6.652344 28.253906 6.695312 28.269531 6.730469 28.289062 C 6.875 28.3125 7.019531 28.332031 7.164062 28.355469 C 7.46875 28.410156 7.773438 28.460938 8.078125 28.507812 C 8.410156 28.5625 8.742188 28.625 9.074219 28.683594 C 9.449219 28.75 9.828125 28.808594 10.203125 28.867188 C 10.613281 28.933594 11.023438 28.988281 11.433594 29.050781 C 11.703125 29.09375 11.972656 29.128906 12.242188 29.164062 C 12.296875 29.167969 12.347656 29.167969 12.402344 29.167969 C 12.425781 29.167969 12.453125 29.167969 12.480469 29.167969 C 12.507812 29.167969 12.53125 29.171875 12.558594 29.171875 C 12.914062 29.179688 13.269531 29.183594 13.625 29.1875 C 13.890625 29.1875 14.15625 29.1875 14.417969 29.1875 C 14.601562 29.179688 14.78125 29.164062 14.960938 29.136719 C 15.074219 29.085938 15.183594 29.027344 15.289062 28.960938 C 15.390625 28.898438 15.472656 28.816406 15.546875 28.726562 C 15.621094 28.632812 15.703125 28.550781 15.789062 28.472656 C 15.878906 28.386719 15.96875 28.351562 16.042969 28.355469 C 16.136719 28.355469 16.203125 28.410156 16.222656 28.492188 C 16.25 28.484375 16.277344 28.476562 16.304688 28.472656 C 16.527344 28.464844 16.613281 28.734375 16.328125 28.921875 C 16.261719 28.96875 16.195312 29.011719 16.128906 29.0625 C 16.175781 29.050781 16.214844 29.042969 16.253906 29.042969 C 16.550781 29.042969 16.601562 29.382812 16.234375 29.488281 C 16.101562 29.527344 15.96875 29.570312 15.828125 29.585938 C 15.78125 29.589844 15.734375 29.597656 15.683594 29.601562 C 15.980469 29.71875 15.894531 30.058594 15.507812 30.007812 C 15.46875 30 15.460938 30 15.445312 30 C 15.398438 30.070312 15.292969 30.121094 15.128906 30.109375 C 15.0625 30.101562 15 30.097656 14.933594 30.089844 C 15.226562 30.222656 15.125 30.5625 14.738281 30.488281 C 14.679688 30.476562 14.621094 30.464844 14.5625 30.453125 C 14.09375 30.367188 13.628906 30.265625 13.167969 30.164062 C 12.660156 30.054688 12.15625 29.941406 11.652344 29.835938 C 11.648438 29.835938 11.648438 29.835938 11.648438 29.835938 C 11.59375 29.835938 11.539062 29.832031 11.480469 29.832031 C 11.3125 29.832031 11.144531 29.832031 10.976562 29.832031 C 10.785156 29.832031 10.675781 29.746094 10.652344 29.648438 C 10.464844 29.613281 10.277344 29.574219 10.085938 29.542969 C 9.503906 29.441406 8.917969 29.339844 8.335938 29.230469 C 7.5 29.070312 6.667969 28.90625 5.835938 28.742188 C 5.46875 28.667969 5.105469 28.597656 4.742188 28.515625 C 4.472656 28.453125 4.570312 28.472656 4.332031 28.417969 C 4.285156 28.40625 4.238281 28.394531 4.191406 28.386719 C 4.042969 28.355469 3.890625 28.328125 3.738281 28.328125 C 3.464844 28.332031 3.359375 28.160156 3.429688 28.03125 C 3.1875 27.917969 2.945312 27.796875 2.710938 27.667969 L 2.710938 35.222656 L 27.648438 35.222656 L 27.648438 6.445312 Z M 2.710938 27.140625 L 2.710938 27.15625 C 2.714844 27.160156 2.722656 27.160156 2.726562 27.164062 C 2.792969 27.203125 2.859375 27.238281 2.925781 27.273438 C 2.855469 27.230469 2.78125 27.1875 2.710938 27.140625 Z M 2.710938 27.140625 "/>
</clipPath>
<clipPath id="clip17">
  <path d="M 2 21 L 17 21 L 17 36 L 2 36 Z M 2 21 "/>
</clipPath>
<clipPath id="clip18">
  <path d="M 2.710938 6.445312 L 2.710938 26.609375 C 2.773438 26.652344 2.835938 26.699219 2.898438 26.738281 C 3.074219 26.847656 3.25 26.957031 3.425781 27.058594 C 3.628906 27.179688 3.84375 27.277344 4.058594 27.375 C 4.3125 27.492188 4.574219 27.589844 4.832031 27.691406 C 5.039062 27.765625 5.246094 27.84375 5.453125 27.914062 C 5.632812 27.976562 5.8125 28.035156 5.996094 28.085938 C 6.195312 28.140625 6.398438 28.199219 6.601562 28.242188 C 6.652344 28.253906 6.695312 28.269531 6.730469 28.289062 C 6.875 28.3125 7.019531 28.332031 7.164062 28.355469 C 7.46875 28.410156 7.773438 28.460938 8.078125 28.507812 C 8.410156 28.5625 8.742188 28.625 9.074219 28.683594 C 9.449219 28.75 9.828125 28.808594 10.203125 28.867188 C 10.613281 28.933594 11.023438 28.988281 11.433594 29.050781 C 11.703125 29.09375 11.972656 29.128906 12.242188 29.164062 C 12.296875 29.167969 12.347656 29.167969 12.402344 29.167969 C 12.425781 29.167969 12.453125 29.167969 12.480469 29.167969 C 12.507812 29.167969 12.53125 29.171875 12.558594 29.171875 C 12.914062 29.179688 13.269531 29.183594 13.625 29.1875 C 13.890625 29.1875 14.15625 29.1875 14.417969 29.1875 C 14.601562 29.179688 14.78125 29.164062 14.960938 29.136719 C 15.074219 29.085938 15.183594 29.027344 15.289062 28.960938 C 15.390625 28.898438 15.472656 28.816406 15.546875 28.726562 C 15.621094 28.632812 15.703125 28.550781 15.789062 28.472656 C 15.878906 28.386719 15.96875 28.351562 16.042969 28.355469 C 16.136719 28.355469 16.203125 28.410156 16.222656 28.492188 C 16.25 28.484375 16.277344 28.476562 16.304688 28.472656 C 16.527344 28.464844 16.613281 28.734375 16.328125 28.921875 C 16.261719 28.96875 16.195312 29.011719 16.128906 29.0625 C 16.175781 29.050781 16.214844 29.042969 16.253906 29.042969 C 16.550781 29.042969 16.601562 29.382812 16.234375 29.488281 C 16.101562 29.527344 15.96875 29.570312 15.828125 29.585938 C 15.78125 29.589844 15.734375 29.597656 15.683594 29.601562 C 15.980469 29.71875 15.894531 30.058594 15.507812 30.007812 C 15.46875 30 15.460938 30 15.445312 30 C 15.398438 30.070312 15.292969 30.121094 15.128906 30.109375 C 15.0625 30.101562 15 30.097656 14.933594 30.089844 C 15.226562 30.222656 15.125 30.5625 14.738281 30.488281 C 14.679688 30.476562 14.621094 30.464844 14.5625 30.453125 C 14.09375 30.367188 13.628906 30.265625 13.167969 30.164062 C 12.660156 30.054688 12.15625 29.941406 11.652344 29.835938 C 11.648438 29.835938 11.648438 29.835938 11.648438 29.835938 C 11.59375 29.835938 11.539062 29.832031 11.480469 29.832031 C 11.3125 29.832031 11.144531 29.832031 10.976562 29.832031 C 10.785156 29.832031 10.675781 29.746094 10.652344 29.648438 C 10.464844 29.613281 10.277344 29.574219 10.085938 29.542969 C 9.503906 29.441406 8.917969 29.339844 8.335938 29.230469 C 7.5 29.070312 6.667969 28.90625 5.835938 28.742188 C 5.46875 28.667969 5.105469 28.597656 4.742188 28.515625 C 4.472656 28.453125 4.570312 28.472656 4.332031 28.417969 C 4.285156 28.40625 4.238281 28.394531 4.191406 28.386719 C 4.042969 28.355469 3.890625 28.328125 3.738281 28.328125 C 3.464844 28.332031 3.359375 28.160156 3.429688 28.03125 C 3.1875 27.917969 2.945312 27.796875 2.710938 27.667969 L 2.710938 35.222656 L 27.648438 35.222656 L 27.648438 6.445312 Z M 2.710938 27.140625 L 2.710938 27.15625 C 2.714844 27.160156 2.722656 27.160156 2.726562 27.164062 C 2.792969 27.203125 2.859375 27.238281 2.925781 27.273438 C 2.855469 27.230469 2.78125 27.1875 2.710938 27.140625 Z M 2.710938 27.140625 "/>
</clipPath>
<clipPath id="clip19">
  <path d="M 2 19 L 19 19 L 19 36 L 2 36 Z M 2 19 "/>
</clipPath>
<clipPath id="clip20">
  <path d="M 2.710938 6.445312 L 2.710938 26.609375 C 2.773438 26.652344 2.835938 26.699219 2.898438 26.738281 C 3.074219 26.847656 3.25 26.957031 3.425781 27.058594 C 3.628906 27.179688 3.84375 27.277344 4.058594 27.375 C 4.3125 27.492188 4.574219 27.589844 4.832031 27.691406 C 5.039062 27.765625 5.246094 27.84375 5.453125 27.914062 C 5.632812 27.976562 5.8125 28.035156 5.996094 28.085938 C 6.195312 28.140625 6.398438 28.199219 6.601562 28.242188 C 6.652344 28.253906 6.695312 28.269531 6.730469 28.289062 C 6.875 28.3125 7.019531 28.332031 7.164062 28.355469 C 7.46875 28.410156 7.773438 28.460938 8.078125 28.507812 C 8.410156 28.5625 8.742188 28.625 9.074219 28.683594 C 9.449219 28.75 9.828125 28.808594 10.203125 28.867188 C 10.613281 28.933594 11.023438 28.988281 11.433594 29.050781 C 11.703125 29.09375 11.972656 29.128906 12.242188 29.164062 C 12.296875 29.167969 12.347656 29.167969 12.402344 29.167969 C 12.425781 29.167969 12.453125 29.167969 12.480469 29.167969 C 12.507812 29.167969 12.53125 29.171875 12.558594 29.171875 C 12.914062 29.179688 13.269531 29.183594 13.625 29.1875 C 13.890625 29.1875 14.15625 29.1875 14.417969 29.1875 C 14.601562 29.179688 14.78125 29.164062 14.960938 29.136719 C 15.074219 29.085938 15.183594 29.027344 15.289062 28.960938 C 15.390625 28.898438 15.472656 28.816406 15.546875 28.726562 C 15.621094 28.632812 15.703125 28.550781 15.789062 28.472656 C 15.878906 28.386719 15.96875 28.351562 16.042969 28.355469 C 16.136719 28.355469 16.203125 28.410156 16.222656 28.492188 C 16.25 28.484375 16.277344 28.476562 16.304688 28.472656 C 16.527344 28.464844 16.613281 28.734375 16.328125 28.921875 C 16.261719 28.96875 16.195312 29.011719 16.128906 29.0625 C 16.175781 29.050781 16.214844 29.042969 16.253906 29.042969 C 16.550781 29.042969 16.601562 29.382812 16.234375 29.488281 C 16.101562 29.527344 15.96875 29.570312 15.828125 29.585938 C 15.78125 29.589844 15.734375 29.597656 15.683594 29.601562 C 15.980469 29.71875 15.894531 30.058594 15.507812 30.007812 C 15.46875 30 15.460938 30 15.445312 30 C 15.398438 30.070312 15.292969 30.121094 15.128906 30.109375 C 15.0625 30.101562 15 30.097656 14.933594 30.089844 C 15.226562 30.222656 15.125 30.5625 14.738281 30.488281 C 14.679688 30.476562 14.621094 30.464844 14.5625 30.453125 C 14.09375 30.367188 13.628906 30.265625 13.167969 30.164062 C 12.660156 30.054688 12.15625 29.941406 11.652344 29.835938 C 11.648438 29.835938 11.648438 29.835938 11.648438 29.835938 C 11.59375 29.835938 11.539062 29.832031 11.480469 29.832031 C 11.3125 29.832031 11.144531 29.832031 10.976562 29.832031 C 10.785156 29.832031 10.675781 29.746094 10.652344 29.648438 C 10.464844 29.613281 10.277344 29.574219 10.085938 29.542969 C 9.503906 29.441406 8.917969 29.339844 8.335938 29.230469 C 7.5 29.070312 6.667969 28.90625 5.835938 28.742188 C 5.46875 28.667969 5.105469 28.597656 4.742188 28.515625 C 4.472656 28.453125 4.570312 28.472656 4.332031 28.417969 C 4.285156 28.40625 4.238281 28.394531 4.191406 28.386719 C 4.042969 28.355469 3.890625 28.328125 3.738281 28.328125 C 3.464844 28.332031 3.359375 28.160156 3.429688 28.03125 C 3.1875 27.917969 2.945312 27.796875 2.710938 27.667969 L 2.710938 35.222656 L 27.648438 35.222656 L 27.648438 6.445312 Z M 2.710938 27.140625 L 2.710938 27.15625 C 2.714844 27.160156 2.722656 27.160156 2.726562 27.164062 C 2.792969 27.203125 2.859375 27.238281 2.925781 27.273438 C 2.855469 27.230469 2.78125 27.1875 2.710938 27.140625 Z M 2.710938 27.140625 "/>
</clipPath>
<clipPath id="clip21">
  <path d="M 36 6 L 46 6 L 46 12 L 36 12 Z M 36 6 "/>
</clipPath>
<clipPath id="clip22">
  <path d="M 61.410156 6.445312 L 61.410156 26.609375 C 61.347656 26.652344 61.285156 26.699219 61.222656 26.738281 C 61.050781 26.847656 60.875 26.957031 60.699219 27.058594 C 60.496094 27.179688 60.277344 27.277344 60.0625 27.375 C 59.8125 27.492188 59.550781 27.589844 59.289062 27.691406 C 59.082031 27.765625 58.875 27.84375 58.667969 27.914062 C 58.488281 27.976562 58.308594 28.035156 58.128906 28.085938 C 57.925781 28.140625 57.722656 28.199219 57.519531 28.242188 C 57.472656 28.253906 57.429688 28.269531 57.394531 28.289062 C 57.25 28.3125 57.101562 28.332031 56.957031 28.355469 C 56.652344 28.410156 56.347656 28.460938 56.042969 28.507812 C 55.710938 28.5625 55.378906 28.625 55.046875 28.683594 C 54.671875 28.75 54.296875 28.808594 53.917969 28.867188 C 53.511719 28.933594 53.101562 28.988281 52.691406 29.050781 C 52.421875 29.09375 52.148438 29.128906 51.878906 29.164062 C 51.828125 29.167969 51.773438 29.167969 51.722656 29.167969 C 51.695312 29.167969 51.667969 29.167969 51.640625 29.167969 C 51.617188 29.167969 51.589844 29.171875 51.5625 29.171875 C 51.207031 29.179688 50.851562 29.183594 50.496094 29.1875 C 50.230469 29.1875 49.96875 29.1875 49.703125 29.1875 C 49.523438 29.179688 49.34375 29.164062 49.164062 29.136719 C 49.050781 29.085938 48.9375 29.027344 48.832031 28.960938 C 48.734375 28.898438 48.652344 28.816406 48.574219 28.726562 C 48.503906 28.632812 48.417969 28.550781 48.332031 28.472656 C 48.242188 28.386719 48.152344 28.351562 48.078125 28.355469 C 47.988281 28.355469 47.917969 28.410156 47.898438 28.492188 C 47.871094 28.484375 47.84375 28.476562 47.820312 28.472656 C 47.59375 28.464844 47.507812 28.734375 47.792969 28.921875 C 47.859375 28.96875 47.925781 29.011719 47.992188 29.0625 C 47.949219 29.050781 47.90625 29.042969 47.871094 29.042969 C 47.570312 29.042969 47.523438 29.382812 47.890625 29.488281 C 48.023438 29.527344 48.15625 29.570312 48.292969 29.585938 C 48.339844 29.589844 48.390625 29.597656 48.4375 29.601562 C 48.144531 29.71875 48.230469 30.058594 48.617188 30.007812 C 48.65625 30 48.664062 30 48.675781 30 C 48.722656 30.070312 48.832031 30.121094 48.992188 30.109375 C 49.058594 30.101562 49.125 30.097656 49.191406 30.089844 C 48.898438 30.222656 49 30.5625 49.386719 30.488281 C 49.445312 30.476562 49.503906 30.464844 49.5625 30.453125 C 50.027344 30.367188 50.492188 30.265625 50.957031 30.164062 C 51.460938 30.054688 51.964844 29.941406 52.472656 29.835938 C 52.53125 29.835938 52.585938 29.832031 52.640625 29.832031 C 52.808594 29.832031 52.976562 29.832031 53.144531 29.832031 C 53.339844 29.832031 53.445312 29.746094 53.46875 29.648438 C 53.65625 29.613281 53.847656 29.574219 54.035156 29.542969 C 54.621094 29.441406 55.203125 29.339844 55.785156 29.230469 C 56.621094 29.070312 57.453125 28.90625 58.289062 28.742188 C 58.652344 28.667969 59.019531 28.597656 59.382812 28.515625 C 59.648438 28.453125 59.554688 28.472656 59.789062 28.417969 C 59.835938 28.40625 59.882812 28.394531 59.929688 28.386719 C 60.082031 28.355469 60.234375 28.328125 60.386719 28.328125 C 60.660156 28.332031 60.761719 28.160156 60.691406 28.03125 C 60.9375 27.917969 61.175781 27.796875 61.410156 27.667969 L 61.410156 35.222656 L 36.476562 35.222656 L 36.476562 6.445312 Z M 61.410156 27.140625 L 61.410156 27.15625 C 61.40625 27.160156 61.402344 27.160156 61.398438 27.164062 C 61.332031 27.203125 61.265625 27.238281 61.199219 27.273438 C 61.269531 27.230469 61.339844 27.1875 61.410156 27.140625 Z M 61.410156 27.140625 "/>
</clipPath>
<clipPath id="clip23">
  <path d="M 36 6 L 47 6 L 47 14 L 36 14 Z M 36 6 "/>
</clipPath>
<clipPath id="clip24">
  <path d="M 61.410156 6.445312 L 61.410156 26.609375 C 61.347656 26.652344 61.285156 26.699219 61.222656 26.738281 C 61.050781 26.847656 60.875 26.957031 60.699219 27.058594 C 60.496094 27.179688 60.277344 27.277344 60.0625 27.375 C 59.8125 27.492188 59.550781 27.589844 59.289062 27.691406 C 59.082031 27.765625 58.875 27.84375 58.667969 27.914062 C 58.488281 27.976562 58.308594 28.035156 58.128906 28.085938 C 57.925781 28.140625 57.722656 28.199219 57.519531 28.242188 C 57.472656 28.253906 57.429688 28.269531 57.394531 28.289062 C 57.25 28.3125 57.101562 28.332031 56.957031 28.355469 C 56.652344 28.410156 56.347656 28.460938 56.042969 28.507812 C 55.710938 28.5625 55.378906 28.625 55.046875 28.683594 C 54.671875 28.75 54.296875 28.808594 53.917969 28.867188 C 53.511719 28.933594 53.101562 28.988281 52.691406 29.050781 C 52.421875 29.09375 52.148438 29.128906 51.878906 29.164062 C 51.828125 29.167969 51.773438 29.167969 51.722656 29.167969 C 51.695312 29.167969 51.667969 29.167969 51.640625 29.167969 C 51.617188 29.167969 51.589844 29.171875 51.5625 29.171875 C 51.207031 29.179688 50.851562 29.183594 50.496094 29.1875 C 50.230469 29.1875 49.96875 29.1875 49.703125 29.1875 C 49.523438 29.179688 49.34375 29.164062 49.164062 29.136719 C 49.050781 29.085938 48.9375 29.027344 48.832031 28.960938 C 48.734375 28.898438 48.652344 28.816406 48.574219 28.726562 C 48.503906 28.632812 48.417969 28.550781 48.332031 28.472656 C 48.242188 28.386719 48.152344 28.351562 48.078125 28.355469 C 47.988281 28.355469 47.917969 28.410156 47.898438 28.492188 C 47.871094 28.484375 47.84375 28.476562 47.820312 28.472656 C 47.59375 28.464844 47.507812 28.734375 47.792969 28.921875 C 47.859375 28.96875 47.925781 29.011719 47.992188 29.0625 C 47.949219 29.050781 47.90625 29.042969 47.871094 29.042969 C 47.570312 29.042969 47.523438 29.382812 47.890625 29.488281 C 48.023438 29.527344 48.15625 29.570312 48.292969 29.585938 C 48.339844 29.589844 48.390625 29.597656 48.4375 29.601562 C 48.144531 29.71875 48.230469 30.058594 48.617188 30.007812 C 48.65625 30 48.664062 30 48.675781 30 C 48.722656 30.070312 48.832031 30.121094 48.992188 30.109375 C 49.058594 30.101562 49.125 30.097656 49.191406 30.089844 C 48.898438 30.222656 49 30.5625 49.386719 30.488281 C 49.445312 30.476562 49.503906 30.464844 49.5625 30.453125 C 50.027344 30.367188 50.492188 30.265625 50.957031 30.164062 C 51.460938 30.054688 51.964844 29.941406 52.472656 29.835938 C 52.53125 29.835938 52.585938 29.832031 52.640625 29.832031 C 52.808594 29.832031 52.976562 29.832031 53.144531 29.832031 C 53.339844 29.832031 53.445312 29.746094 53.46875 29.648438 C 53.65625 29.613281 53.847656 29.574219 54.035156 29.542969 C 54.621094 29.441406 55.203125 29.339844 55.785156 29.230469 C 56.621094 29.070312 57.453125 28.90625 58.289062 28.742188 C 58.652344 28.667969 59.019531 28.597656 59.382812 28.515625 C 59.648438 28.453125 59.554688 28.472656 59.789062 28.417969 C 59.835938 28.40625 59.882812 28.394531 59.929688 28.386719 C 60.082031 28.355469 60.234375 28.328125 60.386719 28.328125 C 60.660156 28.332031 60.761719 28.160156 60.691406 28.03125 C 60.9375 27.917969 61.175781 27.796875 61.410156 27.667969 L 61.410156 35.222656 L 36.476562 35.222656 L 36.476562 6.445312 Z M 61.410156 27.140625 L 61.410156 27.15625 C 61.40625 27.160156 61.402344 27.160156 61.398438 27.164062 C 61.332031 27.203125 61.265625 27.238281 61.199219 27.273438 C 61.269531 27.230469 61.339844 27.1875 61.410156 27.140625 Z M 61.410156 27.140625 "/>
</clipPath>
<clipPath id="clip25">
  <path d="M 41 7 L 50 7 L 50 17 L 41 17 Z M 41 7 "/>
</clipPath>
<clipPath id="clip26">
  <path d="M 61.410156 6.445312 L 61.410156 26.609375 C 61.347656 26.652344 61.285156 26.699219 61.222656 26.738281 C 61.050781 26.847656 60.875 26.957031 60.699219 27.058594 C 60.496094 27.179688 60.277344 27.277344 60.0625 27.375 C 59.8125 27.492188 59.550781 27.589844 59.289062 27.691406 C 59.082031 27.765625 58.875 27.84375 58.667969 27.914062 C 58.488281 27.976562 58.308594 28.035156 58.128906 28.085938 C 57.925781 28.140625 57.722656 28.199219 57.519531 28.242188 C 57.472656 28.253906 57.429688 28.269531 57.394531 28.289062 C 57.25 28.3125 57.101562 28.332031 56.957031 28.355469 C 56.652344 28.410156 56.347656 28.460938 56.042969 28.507812 C 55.710938 28.5625 55.378906 28.625 55.046875 28.683594 C 54.671875 28.75 54.296875 28.808594 53.917969 28.867188 C 53.511719 28.933594 53.101562 28.988281 52.691406 29.050781 C 52.421875 29.09375 52.148438 29.128906 51.878906 29.164062 C 51.828125 29.167969 51.773438 29.167969 51.722656 29.167969 C 51.695312 29.167969 51.667969 29.167969 51.640625 29.167969 C 51.617188 29.167969 51.589844 29.171875 51.5625 29.171875 C 51.207031 29.179688 50.851562 29.183594 50.496094 29.1875 C 50.230469 29.1875 49.96875 29.1875 49.703125 29.1875 C 49.523438 29.179688 49.34375 29.164062 49.164062 29.136719 C 49.050781 29.085938 48.9375 29.027344 48.832031 28.960938 C 48.734375 28.898438 48.652344 28.816406 48.574219 28.726562 C 48.503906 28.632812 48.417969 28.550781 48.332031 28.472656 C 48.242188 28.386719 48.152344 28.351562 48.078125 28.355469 C 47.988281 28.355469 47.917969 28.410156 47.898438 28.492188 C 47.871094 28.484375 47.84375 28.476562 47.820312 28.472656 C 47.59375 28.464844 47.507812 28.734375 47.792969 28.921875 C 47.859375 28.96875 47.925781 29.011719 47.992188 29.0625 C 47.949219 29.050781 47.90625 29.042969 47.871094 29.042969 C 47.570312 29.042969 47.523438 29.382812 47.890625 29.488281 C 48.023438 29.527344 48.15625 29.570312 48.292969 29.585938 C 48.339844 29.589844 48.390625 29.597656 48.4375 29.601562 C 48.144531 29.71875 48.230469 30.058594 48.617188 30.007812 C 48.65625 30 48.664062 30 48.675781 30 C 48.722656 30.070312 48.832031 30.121094 48.992188 30.109375 C 49.058594 30.101562 49.125 30.097656 49.191406 30.089844 C 48.898438 30.222656 49 30.5625 49.386719 30.488281 C 49.445312 30.476562 49.503906 30.464844 49.5625 30.453125 C 50.027344 30.367188 50.492188 30.265625 50.957031 30.164062 C 51.460938 30.054688 51.964844 29.941406 52.472656 29.835938 C 52.53125 29.835938 52.585938 29.832031 52.640625 29.832031 C 52.808594 29.832031 52.976562 29.832031 53.144531 29.832031 C 53.339844 29.832031 53.445312 29.746094 53.46875 29.648438 C 53.65625 29.613281 53.847656 29.574219 54.035156 29.542969 C 54.621094 29.441406 55.203125 29.339844 55.785156 29.230469 C 56.621094 29.070312 57.453125 28.90625 58.289062 28.742188 C 58.652344 28.667969 59.019531 28.597656 59.382812 28.515625 C 59.648438 28.453125 59.554688 28.472656 59.789062 28.417969 C 59.835938 28.40625 59.882812 28.394531 59.929688 28.386719 C 60.082031 28.355469 60.234375 28.328125 60.386719 28.328125 C 60.660156 28.332031 60.761719 28.160156 60.691406 28.03125 C 60.9375 27.917969 61.175781 27.796875 61.410156 27.667969 L 61.410156 35.222656 L 36.476562 35.222656 L 36.476562 6.445312 Z M 61.410156 27.140625 L 61.410156 27.15625 C 61.40625 27.160156 61.402344 27.160156 61.398438 27.164062 C 61.332031 27.203125 61.265625 27.238281 61.199219 27.273438 C 61.269531 27.230469 61.339844 27.1875 61.410156 27.140625 Z M 61.410156 27.140625 "/>
</clipPath>
<clipPath id="clip27">
  <path d="M 39 6 L 52 6 L 52 18 L 39 18 Z M 39 6 "/>
</clipPath>
<clipPath id="clip28">
  <path d="M 61.410156 6.445312 L 61.410156 26.609375 C 61.347656 26.652344 61.285156 26.699219 61.222656 26.738281 C 61.050781 26.847656 60.875 26.957031 60.699219 27.058594 C 60.496094 27.179688 60.277344 27.277344 60.0625 27.375 C 59.8125 27.492188 59.550781 27.589844 59.289062 27.691406 C 59.082031 27.765625 58.875 27.84375 58.667969 27.914062 C 58.488281 27.976562 58.308594 28.035156 58.128906 28.085938 C 57.925781 28.140625 57.722656 28.199219 57.519531 28.242188 C 57.472656 28.253906 57.429688 28.269531 57.394531 28.289062 C 57.25 28.3125 57.101562 28.332031 56.957031 28.355469 C 56.652344 28.410156 56.347656 28.460938 56.042969 28.507812 C 55.710938 28.5625 55.378906 28.625 55.046875 28.683594 C 54.671875 28.75 54.296875 28.808594 53.917969 28.867188 C 53.511719 28.933594 53.101562 28.988281 52.691406 29.050781 C 52.421875 29.09375 52.148438 29.128906 51.878906 29.164062 C 51.828125 29.167969 51.773438 29.167969 51.722656 29.167969 C 51.695312 29.167969 51.667969 29.167969 51.640625 29.167969 C 51.617188 29.167969 51.589844 29.171875 51.5625 29.171875 C 51.207031 29.179688 50.851562 29.183594 50.496094 29.1875 C 50.230469 29.1875 49.96875 29.1875 49.703125 29.1875 C 49.523438 29.179688 49.34375 29.164062 49.164062 29.136719 C 49.050781 29.085938 48.9375 29.027344 48.832031 28.960938 C 48.734375 28.898438 48.652344 28.816406 48.574219 28.726562 C 48.503906 28.632812 48.417969 28.550781 48.332031 28.472656 C 48.242188 28.386719 48.152344 28.351562 48.078125 28.355469 C 47.988281 28.355469 47.917969 28.410156 47.898438 28.492188 C 47.871094 28.484375 47.84375 28.476562 47.820312 28.472656 C 47.59375 28.464844 47.507812 28.734375 47.792969 28.921875 C 47.859375 28.96875 47.925781 29.011719 47.992188 29.0625 C 47.949219 29.050781 47.90625 29.042969 47.871094 29.042969 C 47.570312 29.042969 47.523438 29.382812 47.890625 29.488281 C 48.023438 29.527344 48.15625 29.570312 48.292969 29.585938 C 48.339844 29.589844 48.390625 29.597656 48.4375 29.601562 C 48.144531 29.71875 48.230469 30.058594 48.617188 30.007812 C 48.65625 30 48.664062 30 48.675781 30 C 48.722656 30.070312 48.832031 30.121094 48.992188 30.109375 C 49.058594 30.101562 49.125 30.097656 49.191406 30.089844 C 48.898438 30.222656 49 30.5625 49.386719 30.488281 C 49.445312 30.476562 49.503906 30.464844 49.5625 30.453125 C 50.027344 30.367188 50.492188 30.265625 50.957031 30.164062 C 51.460938 30.054688 51.964844 29.941406 52.472656 29.835938 C 52.53125 29.835938 52.585938 29.832031 52.640625 29.832031 C 52.808594 29.832031 52.976562 29.832031 53.144531 29.832031 C 53.339844 29.832031 53.445312 29.746094 53.46875 29.648438 C 53.65625 29.613281 53.847656 29.574219 54.035156 29.542969 C 54.621094 29.441406 55.203125 29.339844 55.785156 29.230469 C 56.621094 29.070312 57.453125 28.90625 58.289062 28.742188 C 58.652344 28.667969 59.019531 28.597656 59.382812 28.515625 C 59.648438 28.453125 59.554688 28.472656 59.789062 28.417969 C 59.835938 28.40625 59.882812 28.394531 59.929688 28.386719 C 60.082031 28.355469 60.234375 28.328125 60.386719 28.328125 C 60.660156 28.332031 60.761719 28.160156 60.691406 28.03125 C 60.9375 27.917969 61.175781 27.796875 61.410156 27.667969 L 61.410156 35.222656 L 36.476562 35.222656 L 36.476562 6.445312 Z M 61.410156 27.140625 L 61.410156 27.15625 C 61.40625 27.160156 61.402344 27.160156 61.398438 27.164062 C 61.332031 27.203125 61.265625 27.238281 61.199219 27.273438 C 61.269531 27.230469 61.339844 27.1875 61.410156 27.140625 Z M 61.410156 27.140625 "/>
</clipPath>
<clipPath id="clip29">
  <path d="M 44 10 L 54 10 L 54 22 L 44 22 Z M 44 10 "/>
</clipPath>
<clipPath id="clip30">
  <path d="M 61.410156 6.445312 L 61.410156 26.609375 C 61.347656 26.652344 61.285156 26.699219 61.222656 26.738281 C 61.050781 26.847656 60.875 26.957031 60.699219 27.058594 C 60.496094 27.179688 60.277344 27.277344 60.0625 27.375 C 59.8125 27.492188 59.550781 27.589844 59.289062 27.691406 C 59.082031 27.765625 58.875 27.84375 58.667969 27.914062 C 58.488281 27.976562 58.308594 28.035156 58.128906 28.085938 C 57.925781 28.140625 57.722656 28.199219 57.519531 28.242188 C 57.472656 28.253906 57.429688 28.269531 57.394531 28.289062 C 57.25 28.3125 57.101562 28.332031 56.957031 28.355469 C 56.652344 28.410156 56.347656 28.460938 56.042969 28.507812 C 55.710938 28.5625 55.378906 28.625 55.046875 28.683594 C 54.671875 28.75 54.296875 28.808594 53.917969 28.867188 C 53.511719 28.933594 53.101562 28.988281 52.691406 29.050781 C 52.421875 29.09375 52.148438 29.128906 51.878906 29.164062 C 51.828125 29.167969 51.773438 29.167969 51.722656 29.167969 C 51.695312 29.167969 51.667969 29.167969 51.640625 29.167969 C 51.617188 29.167969 51.589844 29.171875 51.5625 29.171875 C 51.207031 29.179688 50.851562 29.183594 50.496094 29.1875 C 50.230469 29.1875 49.96875 29.1875 49.703125 29.1875 C 49.523438 29.179688 49.34375 29.164062 49.164062 29.136719 C 49.050781 29.085938 48.9375 29.027344 48.832031 28.960938 C 48.734375 28.898438 48.652344 28.816406 48.574219 28.726562 C 48.503906 28.632812 48.417969 28.550781 48.332031 28.472656 C 48.242188 28.386719 48.152344 28.351562 48.078125 28.355469 C 47.988281 28.355469 47.917969 28.410156 47.898438 28.492188 C 47.871094 28.484375 47.84375 28.476562 47.820312 28.472656 C 47.59375 28.464844 47.507812 28.734375 47.792969 28.921875 C 47.859375 28.96875 47.925781 29.011719 47.992188 29.0625 C 47.949219 29.050781 47.90625 29.042969 47.871094 29.042969 C 47.570312 29.042969 47.523438 29.382812 47.890625 29.488281 C 48.023438 29.527344 48.15625 29.570312 48.292969 29.585938 C 48.339844 29.589844 48.390625 29.597656 48.4375 29.601562 C 48.144531 29.71875 48.230469 30.058594 48.617188 30.007812 C 48.65625 30 48.664062 30 48.675781 30 C 48.722656 30.070312 48.832031 30.121094 48.992188 30.109375 C 49.058594 30.101562 49.125 30.097656 49.191406 30.089844 C 48.898438 30.222656 49 30.5625 49.386719 30.488281 C 49.445312 30.476562 49.503906 30.464844 49.5625 30.453125 C 50.027344 30.367188 50.492188 30.265625 50.957031 30.164062 C 51.460938 30.054688 51.964844 29.941406 52.472656 29.835938 C 52.53125 29.835938 52.585938 29.832031 52.640625 29.832031 C 52.808594 29.832031 52.976562 29.832031 53.144531 29.832031 C 53.339844 29.832031 53.445312 29.746094 53.46875 29.648438 C 53.65625 29.613281 53.847656 29.574219 54.035156 29.542969 C 54.621094 29.441406 55.203125 29.339844 55.785156 29.230469 C 56.621094 29.070312 57.453125 28.90625 58.289062 28.742188 C 58.652344 28.667969 59.019531 28.597656 59.382812 28.515625 C 59.648438 28.453125 59.554688 28.472656 59.789062 28.417969 C 59.835938 28.40625 59.882812 28.394531 59.929688 28.386719 C 60.082031 28.355469 60.234375 28.328125 60.386719 28.328125 C 60.660156 28.332031 60.761719 28.160156 60.691406 28.03125 C 60.9375 27.917969 61.175781 27.796875 61.410156 27.667969 L 61.410156 35.222656 L 36.476562 35.222656 L 36.476562 6.445312 Z M 61.410156 27.140625 L 61.410156 27.15625 C 61.40625 27.160156 61.402344 27.160156 61.398438 27.164062 C 61.332031 27.203125 61.265625 27.238281 61.199219 27.273438 C 61.269531 27.230469 61.339844 27.1875 61.410156 27.140625 Z M 61.410156 27.140625 "/>
</clipPath>
<clipPath id="clip31">
  <path d="M 42 8 L 55 8 L 55 24 L 42 24 Z M 42 8 "/>
</clipPath>
<clipPath id="clip32">
  <path d="M 61.410156 6.445312 L 61.410156 26.609375 C 61.347656 26.652344 61.285156 26.699219 61.222656 26.738281 C 61.050781 26.847656 60.875 26.957031 60.699219 27.058594 C 60.496094 27.179688 60.277344 27.277344 60.0625 27.375 C 59.8125 27.492188 59.550781 27.589844 59.289062 27.691406 C 59.082031 27.765625 58.875 27.84375 58.667969 27.914062 C 58.488281 27.976562 58.308594 28.035156 58.128906 28.085938 C 57.925781 28.140625 57.722656 28.199219 57.519531 28.242188 C 57.472656 28.253906 57.429688 28.269531 57.394531 28.289062 C 57.25 28.3125 57.101562 28.332031 56.957031 28.355469 C 56.652344 28.410156 56.347656 28.460938 56.042969 28.507812 C 55.710938 28.5625 55.378906 28.625 55.046875 28.683594 C 54.671875 28.75 54.296875 28.808594 53.917969 28.867188 C 53.511719 28.933594 53.101562 28.988281 52.691406 29.050781 C 52.421875 29.09375 52.148438 29.128906 51.878906 29.164062 C 51.828125 29.167969 51.773438 29.167969 51.722656 29.167969 C 51.695312 29.167969 51.667969 29.167969 51.640625 29.167969 C 51.617188 29.167969 51.589844 29.171875 51.5625 29.171875 C 51.207031 29.179688 50.851562 29.183594 50.496094 29.1875 C 50.230469 29.1875 49.96875 29.1875 49.703125 29.1875 C 49.523438 29.179688 49.34375 29.164062 49.164062 29.136719 C 49.050781 29.085938 48.9375 29.027344 48.832031 28.960938 C 48.734375 28.898438 48.652344 28.816406 48.574219 28.726562 C 48.503906 28.632812 48.417969 28.550781 48.332031 28.472656 C 48.242188 28.386719 48.152344 28.351562 48.078125 28.355469 C 47.988281 28.355469 47.917969 28.410156 47.898438 28.492188 C 47.871094 28.484375 47.84375 28.476562 47.820312 28.472656 C 47.59375 28.464844 47.507812 28.734375 47.792969 28.921875 C 47.859375 28.96875 47.925781 29.011719 47.992188 29.0625 C 47.949219 29.050781 47.90625 29.042969 47.871094 29.042969 C 47.570312 29.042969 47.523438 29.382812 47.890625 29.488281 C 48.023438 29.527344 48.15625 29.570312 48.292969 29.585938 C 48.339844 29.589844 48.390625 29.597656 48.4375 29.601562 C 48.144531 29.71875 48.230469 30.058594 48.617188 30.007812 C 48.65625 30 48.664062 30 48.675781 30 C 48.722656 30.070312 48.832031 30.121094 48.992188 30.109375 C 49.058594 30.101562 49.125 30.097656 49.191406 30.089844 C 48.898438 30.222656 49 30.5625 49.386719 30.488281 C 49.445312 30.476562 49.503906 30.464844 49.5625 30.453125 C 50.027344 30.367188 50.492188 30.265625 50.957031 30.164062 C 51.460938 30.054688 51.964844 29.941406 52.472656 29.835938 C 52.53125 29.835938 52.585938 29.832031 52.640625 29.832031 C 52.808594 29.832031 52.976562 29.832031 53.144531 29.832031 C 53.339844 29.832031 53.445312 29.746094 53.46875 29.648438 C 53.65625 29.613281 53.847656 29.574219 54.035156 29.542969 C 54.621094 29.441406 55.203125 29.339844 55.785156 29.230469 C 56.621094 29.070312 57.453125 28.90625 58.289062 28.742188 C 58.652344 28.667969 59.019531 28.597656 59.382812 28.515625 C 59.648438 28.453125 59.554688 28.472656 59.789062 28.417969 C 59.835938 28.40625 59.882812 28.394531 59.929688 28.386719 C 60.082031 28.355469 60.234375 28.328125 60.386719 28.328125 C 60.660156 28.332031 60.761719 28.160156 60.691406 28.03125 C 60.9375 27.917969 61.175781 27.796875 61.410156 27.667969 L 61.410156 35.222656 L 36.476562 35.222656 L 36.476562 6.445312 Z M 61.410156 27.140625 L 61.410156 27.15625 C 61.40625 27.160156 61.402344 27.160156 61.398438 27.164062 C 61.332031 27.203125 61.265625 27.238281 61.199219 27.273438 C 61.269531 27.230469 61.339844 27.1875 61.410156 27.140625 Z M 61.410156 27.140625 "/>
</clipPath>
<clipPath id="clip33">
  <path d="M 45 13 L 59 13 L 59 29 L 45 29 Z M 45 13 "/>
</clipPath>
<clipPath id="clip34">
  <path d="M 61.410156 6.445312 L 61.410156 26.609375 C 61.347656 26.652344 61.285156 26.699219 61.222656 26.738281 C 61.050781 26.847656 60.875 26.957031 60.699219 27.058594 C 60.496094 27.179688 60.277344 27.277344 60.0625 27.375 C 59.8125 27.492188 59.550781 27.589844 59.289062 27.691406 C 59.082031 27.765625 58.875 27.84375 58.667969 27.914062 C 58.488281 27.976562 58.308594 28.035156 58.128906 28.085938 C 57.925781 28.140625 57.722656 28.199219 57.519531 28.242188 C 57.472656 28.253906 57.429688 28.269531 57.394531 28.289062 C 57.25 28.3125 57.101562 28.332031 56.957031 28.355469 C 56.652344 28.410156 56.347656 28.460938 56.042969 28.507812 C 55.710938 28.5625 55.378906 28.625 55.046875 28.683594 C 54.671875 28.75 54.296875 28.808594 53.917969 28.867188 C 53.511719 28.933594 53.101562 28.988281 52.691406 29.050781 C 52.421875 29.09375 52.148438 29.128906 51.878906 29.164062 C 51.828125 29.167969 51.773438 29.167969 51.722656 29.167969 C 51.695312 29.167969 51.667969 29.167969 51.640625 29.167969 C 51.617188 29.167969 51.589844 29.171875 51.5625 29.171875 C 51.207031 29.179688 50.851562 29.183594 50.496094 29.1875 C 50.230469 29.1875 49.96875 29.1875 49.703125 29.1875 C 49.523438 29.179688 49.34375 29.164062 49.164062 29.136719 C 49.050781 29.085938 48.9375 29.027344 48.832031 28.960938 C 48.734375 28.898438 48.652344 28.816406 48.574219 28.726562 C 48.503906 28.632812 48.417969 28.550781 48.332031 28.472656 C 48.242188 28.386719 48.152344 28.351562 48.078125 28.355469 C 47.988281 28.355469 47.917969 28.410156 47.898438 28.492188 C 47.871094 28.484375 47.84375 28.476562 47.820312 28.472656 C 47.59375 28.464844 47.507812 28.734375 47.792969 28.921875 C 47.859375 28.96875 47.925781 29.011719 47.992188 29.0625 C 47.949219 29.050781 47.90625 29.042969 47.871094 29.042969 C 47.570312 29.042969 47.523438 29.382812 47.890625 29.488281 C 48.023438 29.527344 48.15625 29.570312 48.292969 29.585938 C 48.339844 29.589844 48.390625 29.597656 48.4375 29.601562 C 48.144531 29.71875 48.230469 30.058594 48.617188 30.007812 C 48.65625 30 48.664062 30 48.675781 30 C 48.722656 30.070312 48.832031 30.121094 48.992188 30.109375 C 49.058594 30.101562 49.125 30.097656 49.191406 30.089844 C 48.898438 30.222656 49 30.5625 49.386719 30.488281 C 49.445312 30.476562 49.503906 30.464844 49.5625 30.453125 C 50.027344 30.367188 50.492188 30.265625 50.957031 30.164062 C 51.460938 30.054688 51.964844 29.941406 52.472656 29.835938 C 52.53125 29.835938 52.585938 29.832031 52.640625 29.832031 C 52.808594 29.832031 52.976562 29.832031 53.144531 29.832031 C 53.339844 29.832031 53.445312 29.746094 53.46875 29.648438 C 53.65625 29.613281 53.847656 29.574219 54.035156 29.542969 C 54.621094 29.441406 55.203125 29.339844 55.785156 29.230469 C 56.621094 29.070312 57.453125 28.90625 58.289062 28.742188 C 58.652344 28.667969 59.019531 28.597656 59.382812 28.515625 C 59.648438 28.453125 59.554688 28.472656 59.789062 28.417969 C 59.835938 28.40625 59.882812 28.394531 59.929688 28.386719 C 60.082031 28.355469 60.234375 28.328125 60.386719 28.328125 C 60.660156 28.332031 60.761719 28.160156 60.691406 28.03125 C 60.9375 27.917969 61.175781 27.796875 61.410156 27.667969 L 61.410156 35.222656 L 36.476562 35.222656 L 36.476562 6.445312 Z M 61.410156 27.140625 L 61.410156 27.15625 C 61.40625 27.160156 61.402344 27.160156 61.398438 27.164062 C 61.332031 27.203125 61.265625 27.238281 61.199219 27.273438 C 61.269531 27.230469 61.339844 27.1875 61.410156 27.140625 Z M 61.410156 27.140625 "/>
</clipPath>
<clipPath id="clip35">
  <path d="M 44 11 L 60 11 L 60 31 L 44 31 Z M 44 11 "/>
</clipPath>
<clipPath id="clip36">
  <path d="M 61.410156 6.445312 L 61.410156 26.609375 C 61.347656 26.652344 61.285156 26.699219 61.222656 26.738281 C 61.050781 26.847656 60.875 26.957031 60.699219 27.058594 C 60.496094 27.179688 60.277344 27.277344 60.0625 27.375 C 59.8125 27.492188 59.550781 27.589844 59.289062 27.691406 C 59.082031 27.765625 58.875 27.84375 58.667969 27.914062 C 58.488281 27.976562 58.308594 28.035156 58.128906 28.085938 C 57.925781 28.140625 57.722656 28.199219 57.519531 28.242188 C 57.472656 28.253906 57.429688 28.269531 57.394531 28.289062 C 57.25 28.3125 57.101562 28.332031 56.957031 28.355469 C 56.652344 28.410156 56.347656 28.460938 56.042969 28.507812 C 55.710938 28.5625 55.378906 28.625 55.046875 28.683594 C 54.671875 28.75 54.296875 28.808594 53.917969 28.867188 C 53.511719 28.933594 53.101562 28.988281 52.691406 29.050781 C 52.421875 29.09375 52.148438 29.128906 51.878906 29.164062 C 51.828125 29.167969 51.773438 29.167969 51.722656 29.167969 C 51.695312 29.167969 51.667969 29.167969 51.640625 29.167969 C 51.617188 29.167969 51.589844 29.171875 51.5625 29.171875 C 51.207031 29.179688 50.851562 29.183594 50.496094 29.1875 C 50.230469 29.1875 49.96875 29.1875 49.703125 29.1875 C 49.523438 29.179688 49.34375 29.164062 49.164062 29.136719 C 49.050781 29.085938 48.9375 29.027344 48.832031 28.960938 C 48.734375 28.898438 48.652344 28.816406 48.574219 28.726562 C 48.503906 28.632812 48.417969 28.550781 48.332031 28.472656 C 48.242188 28.386719 48.152344 28.351562 48.078125 28.355469 C 47.988281 28.355469 47.917969 28.410156 47.898438 28.492188 C 47.871094 28.484375 47.84375 28.476562 47.820312 28.472656 C 47.59375 28.464844 47.507812 28.734375 47.792969 28.921875 C 47.859375 28.96875 47.925781 29.011719 47.992188 29.0625 C 47.949219 29.050781 47.90625 29.042969 47.871094 29.042969 C 47.570312 29.042969 47.523438 29.382812 47.890625 29.488281 C 48.023438 29.527344 48.15625 29.570312 48.292969 29.585938 C 48.339844 29.589844 48.390625 29.597656 48.4375 29.601562 C 48.144531 29.71875 48.230469 30.058594 48.617188 30.007812 C 48.65625 30 48.664062 30 48.675781 30 C 48.722656 30.070312 48.832031 30.121094 48.992188 30.109375 C 49.058594 30.101562 49.125 30.097656 49.191406 30.089844 C 48.898438 30.222656 49 30.5625 49.386719 30.488281 C 49.445312 30.476562 49.503906 30.464844 49.5625 30.453125 C 50.027344 30.367188 50.492188 30.265625 50.957031 30.164062 C 51.460938 30.054688 51.964844 29.941406 52.472656 29.835938 C 52.53125 29.835938 52.585938 29.832031 52.640625 29.832031 C 52.808594 29.832031 52.976562 29.832031 53.144531 29.832031 C 53.339844 29.832031 53.445312 29.746094 53.46875 29.648438 C 53.65625 29.613281 53.847656 29.574219 54.035156 29.542969 C 54.621094 29.441406 55.203125 29.339844 55.785156 29.230469 C 56.621094 29.070312 57.453125 28.90625 58.289062 28.742188 C 58.652344 28.667969 59.019531 28.597656 59.382812 28.515625 C 59.648438 28.453125 59.554688 28.472656 59.789062 28.417969 C 59.835938 28.40625 59.882812 28.394531 59.929688 28.386719 C 60.082031 28.355469 60.234375 28.328125 60.386719 28.328125 C 60.660156 28.332031 60.761719 28.160156 60.691406 28.03125 C 60.9375 27.917969 61.175781 27.796875 61.410156 27.667969 L 61.410156 35.222656 L 36.476562 35.222656 L 36.476562 6.445312 Z M 61.410156 27.140625 L 61.410156 27.15625 C 61.40625 27.160156 61.402344 27.160156 61.398438 27.164062 C 61.332031 27.203125 61.265625 27.238281 61.199219 27.273438 C 61.269531 27.230469 61.339844 27.1875 61.410156 27.140625 Z M 61.410156 27.140625 "/>
</clipPath>
<clipPath id="clip37">
  <path d="M 47 21 L 62 21 L 62 36 L 47 36 Z M 47 21 "/>
</clipPath>
<clipPath id="clip38">
  <path d="M 61.410156 6.445312 L 61.410156 26.609375 C 61.347656 26.652344 61.285156 26.699219 61.222656 26.738281 C 61.050781 26.847656 60.875 26.957031 60.699219 27.058594 C 60.496094 27.179688 60.277344 27.277344 60.0625 27.375 C 59.8125 27.492188 59.550781 27.589844 59.289062 27.691406 C 59.082031 27.765625 58.875 27.84375 58.667969 27.914062 C 58.488281 27.976562 58.308594 28.035156 58.128906 28.085938 C 57.925781 28.140625 57.722656 28.199219 57.519531 28.242188 C 57.472656 28.253906 57.429688 28.269531 57.394531 28.289062 C 57.25 28.3125 57.101562 28.332031 56.957031 28.355469 C 56.652344 28.410156 56.347656 28.460938 56.042969 28.507812 C 55.710938 28.5625 55.378906 28.625 55.046875 28.683594 C 54.671875 28.75 54.296875 28.808594 53.917969 28.867188 C 53.511719 28.933594 53.101562 28.988281 52.691406 29.050781 C 52.421875 29.09375 52.148438 29.128906 51.878906 29.164062 C 51.828125 29.167969 51.773438 29.167969 51.722656 29.167969 C 51.695312 29.167969 51.667969 29.167969 51.640625 29.167969 C 51.617188 29.167969 51.589844 29.171875 51.5625 29.171875 C 51.207031 29.179688 50.851562 29.183594 50.496094 29.1875 C 50.230469 29.1875 49.96875 29.1875 49.703125 29.1875 C 49.523438 29.179688 49.34375 29.164062 49.164062 29.136719 C 49.050781 29.085938 48.9375 29.027344 48.832031 28.960938 C 48.734375 28.898438 48.652344 28.816406 48.574219 28.726562 C 48.503906 28.632812 48.417969 28.550781 48.332031 28.472656 C 48.242188 28.386719 48.152344 28.351562 48.078125 28.355469 C 47.988281 28.355469 47.917969 28.410156 47.898438 28.492188 C 47.871094 28.484375 47.84375 28.476562 47.820312 28.472656 C 47.59375 28.464844 47.507812 28.734375 47.792969 28.921875 C 47.859375 28.96875 47.925781 29.011719 47.992188 29.0625 C 47.949219 29.050781 47.90625 29.042969 47.871094 29.042969 C 47.570312 29.042969 47.523438 29.382812 47.890625 29.488281 C 48.023438 29.527344 48.15625 29.570312 48.292969 29.585938 C 48.339844 29.589844 48.390625 29.597656 48.4375 29.601562 C 48.144531 29.71875 48.230469 30.058594 48.617188 30.007812 C 48.65625 30 48.664062 30 48.675781 30 C 48.722656 30.070312 48.832031 30.121094 48.992188 30.109375 C 49.058594 30.101562 49.125 30.097656 49.191406 30.089844 C 48.898438 30.222656 49 30.5625 49.386719 30.488281 C 49.445312 30.476562 49.503906 30.464844 49.5625 30.453125 C 50.027344 30.367188 50.492188 30.265625 50.957031 30.164062 C 51.460938 30.054688 51.964844 29.941406 52.472656 29.835938 C 52.53125 29.835938 52.585938 29.832031 52.640625 29.832031 C 52.808594 29.832031 52.976562 29.832031 53.144531 29.832031 C 53.339844 29.832031 53.445312 29.746094 53.46875 29.648438 C 53.65625 29.613281 53.847656 29.574219 54.035156 29.542969 C 54.621094 29.441406 55.203125 29.339844 55.785156 29.230469 C 56.621094 29.070312 57.453125 28.90625 58.289062 28.742188 C 58.652344 28.667969 59.019531 28.597656 59.382812 28.515625 C 59.648438 28.453125 59.554688 28.472656 59.789062 28.417969 C 59.835938 28.40625 59.882812 28.394531 59.929688 28.386719 C 60.082031 28.355469 60.234375 28.328125 60.386719 28.328125 C 60.660156 28.332031 60.761719 28.160156 60.691406 28.03125 C 60.9375 27.917969 61.175781 27.796875 61.410156 27.667969 L 61.410156 35.222656 L 36.476562 35.222656 L 36.476562 6.445312 Z M 61.410156 27.140625 L 61.410156 27.15625 C 61.40625 27.160156 61.402344 27.160156 61.398438 27.164062 C 61.332031 27.203125 61.265625 27.238281 61.199219 27.273438 C 61.269531 27.230469 61.339844 27.1875 61.410156 27.140625 Z M 61.410156 27.140625 "/>
</clipPath>
<clipPath id="clip39">
  <path d="M 45 19 L 62 19 L 62 36 L 45 36 Z M 45 19 "/>
</clipPath>
<clipPath id="clip40">
  <path d="M 61.410156 6.445312 L 61.410156 26.609375 C 61.347656 26.652344 61.285156 26.699219 61.222656 26.738281 C 61.050781 26.847656 60.875 26.957031 60.699219 27.058594 C 60.496094 27.179688 60.277344 27.277344 60.0625 27.375 C 59.8125 27.492188 59.550781 27.589844 59.289062 27.691406 C 59.082031 27.765625 58.875 27.84375 58.667969 27.914062 C 58.488281 27.976562 58.308594 28.035156 58.128906 28.085938 C 57.925781 28.140625 57.722656 28.199219 57.519531 28.242188 C 57.472656 28.253906 57.429688 28.269531 57.394531 28.289062 C 57.25 28.3125 57.101562 28.332031 56.957031 28.355469 C 56.652344 28.410156 56.347656 28.460938 56.042969 28.507812 C 55.710938 28.5625 55.378906 28.625 55.046875 28.683594 C 54.671875 28.75 54.296875 28.808594 53.917969 28.867188 C 53.511719 28.933594 53.101562 28.988281 52.691406 29.050781 C 52.421875 29.09375 52.148438 29.128906 51.878906 29.164062 C 51.828125 29.167969 51.773438 29.167969 51.722656 29.167969 C 51.695312 29.167969 51.667969 29.167969 51.640625 29.167969 C 51.617188 29.167969 51.589844 29.171875 51.5625 29.171875 C 51.207031 29.179688 50.851562 29.183594 50.496094 29.1875 C 50.230469 29.1875 49.96875 29.1875 49.703125 29.1875 C 49.523438 29.179688 49.34375 29.164062 49.164062 29.136719 C 49.050781 29.085938 48.9375 29.027344 48.832031 28.960938 C 48.734375 28.898438 48.652344 28.816406 48.574219 28.726562 C 48.503906 28.632812 48.417969 28.550781 48.332031 28.472656 C 48.242188 28.386719 48.152344 28.351562 48.078125 28.355469 C 47.988281 28.355469 47.917969 28.410156 47.898438 28.492188 C 47.871094 28.484375 47.84375 28.476562 47.820312 28.472656 C 47.59375 28.464844 47.507812 28.734375 47.792969 28.921875 C 47.859375 28.96875 47.925781 29.011719 47.992188 29.0625 C 47.949219 29.050781 47.90625 29.042969 47.871094 29.042969 C 47.570312 29.042969 47.523438 29.382812 47.890625 29.488281 C 48.023438 29.527344 48.15625 29.570312 48.292969 29.585938 C 48.339844 29.589844 48.390625 29.597656 48.4375 29.601562 C 48.144531 29.71875 48.230469 30.058594 48.617188 30.007812 C 48.65625 30 48.664062 30 48.675781 30 C 48.722656 30.070312 48.832031 30.121094 48.992188 30.109375 C 49.058594 30.101562 49.125 30.097656 49.191406 30.089844 C 48.898438 30.222656 49 30.5625 49.386719 30.488281 C 49.445312 30.476562 49.503906 30.464844 49.5625 30.453125 C 50.027344 30.367188 50.492188 30.265625 50.957031 30.164062 C 51.460938 30.054688 51.964844 29.941406 52.472656 29.835938 C 52.53125 29.835938 52.585938 29.832031 52.640625 29.832031 C 52.808594 29.832031 52.976562 29.832031 53.144531 29.832031 C 53.339844 29.832031 53.445312 29.746094 53.46875 29.648438 C 53.65625 29.613281 53.847656 29.574219 54.035156 29.542969 C 54.621094 29.441406 55.203125 29.339844 55.785156 29.230469 C 56.621094 29.070312 57.453125 28.90625 58.289062 28.742188 C 58.652344 28.667969 59.019531 28.597656 59.382812 28.515625 C 59.648438 28.453125 59.554688 28.472656 59.789062 28.417969 C 59.835938 28.40625 59.882812 28.394531 59.929688 28.386719 C 60.082031 28.355469 60.234375 28.328125 60.386719 28.328125 C 60.660156 28.332031 60.761719 28.160156 60.691406 28.03125 C 60.9375 27.917969 61.175781 27.796875 61.410156 27.667969 L 61.410156 35.222656 L 36.476562 35.222656 L 36.476562 6.445312 Z M 61.410156 27.140625 L 61.410156 27.15625 C 61.40625 27.160156 61.402344 27.160156 61.398438 27.164062 C 61.332031 27.203125 61.265625 27.238281 61.199219 27.273438 C 61.269531 27.230469 61.339844 27.1875 61.410156 27.140625 Z M 61.410156 27.140625 "/>
</clipPath>
</defs>
<g id="surface1">
<path style=" stroke:none;fill-rule:nonzero;fill:rgb(0%,0%,0%);fill-opacity:1;" d="M 37.296875 51.78125 C 37.296875 50.640625 34.929688 49.71875 32.007812 49.71875 C 29.085938 49.71875 26.71875 50.640625 26.71875 51.78125 C 26.71875 52.921875 29.085938 53.84375 32.007812 53.84375 C 34.929688 53.84375 37.296875 52.921875 37.296875 51.78125 Z M 37.296875 51.78125 "/>
<path style="fill:none;stroke-width:4.4;stroke-linecap:round;stroke-linejoin:round;stroke:rgb(0%,0%,0%);stroke-opacity:1;stroke-miterlimit:4;" d="M 256 399.25 L 256 354.375 " transform="matrix(0.125,0,0,0.125,0,0)"/>
<path style="fill-rule:nonzero;fill:rgb(0%,0%,0%);fill-opacity:1;stroke-width:4.4;stroke-linecap:round;stroke-linejoin:round;stroke:rgb(0%,0%,0%);stroke-opacity:1;stroke-miterlimit:4;" d="M 263.125 400.5 L 272.625 343 " transform="matrix(0.125,0,0,0.125,0,0)"/>
<path style="fill-rule:nonzero;fill:rgb(0%,0%,0%);fill-opacity:1;stroke-width:4.4;stroke-linecap:round;stroke-linejoin:round;stroke:rgb(0%,0%,0%);stroke-opacity:1;stroke-miterlimit:4;" d="M 249.46875 400.96875 L 239.96875 343.46875 " transform="matrix(0.125,0,0,0.125,0,0)"/>
<path style="fill-rule:nonzero;fill:rgb(0%,0%,0%);fill-opacity:1;stroke-width:4.4;stroke-linecap:round;stroke-linejoin:round;stroke:rgb(0%,0%,0%);stroke-opacity:1;stroke-miterlimit:4;" d="M 280.625 404.625 C 281 404 301.25 346.5 301.25 346.5 " transform="matrix(0.125,0,0,0.125,0,0)"/>
<path style="fill-rule:nonzero;fill:rgb(0%,0%,0%);fill-opacity:1;stroke-width:4.4;stroke-linecap:round;stroke-linejoin:round;stroke:rgb(0%,0%,0%);stroke-opacity:1;stroke-miterlimit:4;" d="M 227.3125 405.5625 C 226.9375 404.9375 206.6875 347.4375 206.6875 347.4375 " transform="matrix(0.125,0,0,0.125,0,0)"/>
<path style="fill-rule:nonzero;fill:rgb(0%,0%,0%);fill-opacity:1;stroke-width:4.4;stroke-linecap:round;stroke-linejoin:round;stroke:rgb(0%,0%,0%);stroke-opacity:1;stroke-miterlimit:4;" d="M 285.5 407.625 L 309.25 360.875 " transform="matrix(0.125,0,0,0.125,0,0)"/>
<path style="fill-rule:nonzero;fill:rgb(0%,0%,0%);fill-opacity:1;stroke-width:4.4;stroke-linecap:round;stroke-linejoin:round;stroke:rgb(0%,0%,0%);stroke-opacity:1;stroke-miterlimit:4;" d="M 222.5625 410.8125 L 198.8125 364.0625 " transform="matrix(0.125,0,0,0.125,0,0)"/>
<path style="fill-rule:nonzero;fill:rgb(0%,0%,0%);fill-opacity:1;stroke-width:4.4;stroke-linecap:round;stroke-linejoin:round;stroke:rgb(0%,0%,0%);stroke-opacity:1;stroke-miterlimit:4;" d="M 292.75 413.25 L 329 355.75 " transform="matrix(0.125,0,0,0.125,0,0)"/>
<path style="fill-rule:nonzero;fill:rgb(0%,0%,0%);fill-opacity:1;stroke-width:4.4;stroke-linecap:round;stroke-linejoin:round;stroke:rgb(0%,0%,0%);stroke-opacity:1;stroke-miterlimit:4;" d="M 216.375 415 L 180.125 357.5 " transform="matrix(0.125,0,0,0.125,0,0)"/>
<path style="fill-rule:nonzero;fill:rgb(0%,0%,0%);fill-opacity:1;stroke-width:4.4;stroke-linecap:round;stroke-linejoin:round;stroke:rgb(0%,0%,0%);stroke-opacity:1;stroke-miterlimit:4;" d="M 271.75 401.75 L 282.75 356.375 " transform="matrix(0.125,0,0,0.125,0,0)"/>
<path style="fill-rule:nonzero;fill:rgb(0%,0%,0%);fill-opacity:1;stroke-width:4.4;stroke-linecap:round;stroke-linejoin:round;stroke:rgb(0%,0%,0%);stroke-opacity:1;stroke-miterlimit:4;" d="M 238.46875 400.34375 L 227.46875 354.96875 " transform="matrix(0.125,0,0,0.125,0,0)"/>
<path style=" stroke:none;fill-rule:nonzero;fill:rgb(0%,0%,0%);fill-opacity:1;" d="M 19.601562 55.640625 C 19.601562 55.640625 19.84375 54.351562 31.796875 54.335938 C 43.753906 54.324219 44.261719 55.640625 44.261719 55.640625 C 44.261719 55.640625 44.253906 57.507812 44.121094 58.195312 C 43.988281 58.882812 43.597656 59.75 43.597656 59.75 C 43.597656 59.75 38.570312 58.429688 31.734375 58.453125 C 24.898438 58.480469 20.109375 59.75 20.109375 59.75 C 20.109375 59.75 19.777344 58.757812 19.679688 58.070312 C 19.582031 57.386719 19.601562 55.640625 19.601562 55.640625 Z M 19.601562 55.640625 "/>
<path style=" stroke:none;fill-rule:nonzero;fill:rgb(0%,0%,0%);fill-opacity:1;" d="M 20.328125 60.191406 L 21.835938 59.773438 L 23.644531 59.484375 C 23.644531 59.484375 23.554688 60.789062 22.183594 60.988281 C 20.671875 61.207031 20.328125 60.191406 20.328125 60.191406 Z M 20.328125 60.191406 "/>
<path style=" stroke:none;fill-rule:nonzero;fill:rgb(0%,0%,0%);fill-opacity:1;" d="M 43.488281 60.191406 L 41.980469 59.773438 L 40.171875 59.484375 C 40.171875 59.484375 40.261719 60.789062 41.632812 60.988281 C 43.144531 61.207031 43.488281 60.191406 43.488281 60.191406 Z M 43.488281 60.191406 "/>
<g clip-path="url(#clip1)" clip-rule="nonzero">
<g clip-path="url(#clip2)" clip-rule="nonzero">
<path style=" stroke:none;fill-rule:nonzero;fill:rgb(0%,0%,0%);fill-opacity:1;" d="M 18.585938 11.777344 C 18.585938 11.777344 19.917969 9.234375 21.953125 8.308594 C 23.988281 7.382812 26.640625 7.46875 27.359375 6.695312 C 28.074219 5.921875 26.347656 8.96875 24.058594 9.53125 C 21.769531 10.09375 21.363281 10.148438 18.585938 11.777344 Z M 18.585938 11.777344 "/>
</g>
</g>
<g clip-path="url(#clip3)" clip-rule="nonzero">
<g clip-path="url(#clip4)" clip-rule="nonzero">
<path style="fill:none;stroke-width:2;stroke-linecap:square;stroke-linejoin:miter;stroke:rgb(0%,0%,0%);stroke-opacity:1;stroke-miterlimit:4;" d="M 148.6875 94.21875 C 148.6875 94.21875 159.34375 73.875 175.625 66.46875 C 191.90625 59.0625 213.125 59.75 218.875 53.5625 C 224.59375 47.375 210.78125 71.75 192.46875 76.25 C 174.15625 80.75 170.90625 81.1875 148.6875 94.21875 Z M 148.6875 94.21875 " transform="matrix(0.125,0,0,0.125,0,0)"/>
</g>
</g>
<g clip-path="url(#clip5)" clip-rule="nonzero">
<g clip-path="url(#clip6)" clip-rule="nonzero">
<path style=" stroke:none;fill-rule:nonzero;fill:rgb(0%,0%,0%);fill-opacity:1;" d="M 14.390625 16.097656 C 14.390625 16.097656 15.34375 14.671875 18.582031 14.292969 C 21.816406 13.914062 22.789062 11.574219 23.007812 11.078125 C 23.007812 11.078125 20.964844 12.226562 19.097656 12.488281 C 16.65625 12.824219 16.476562 13.675781 16.476562 13.675781 C 16.476562 13.675781 17.527344 8.773438 21.222656 7.761719 C 21.222656 7.761719 16.15625 8.835938 15.324219 11.710938 C 14.890625 13.210938 14.90625 14.886719 14.390625 16.097656 Z M 14.390625 16.097656 "/>
</g>
</g>
<g clip-path="url(#clip7)" clip-rule="nonzero">
<g clip-path="url(#clip8)" clip-rule="nonzero">
<path style="fill:none;stroke-width:2;stroke-linecap:square;stroke-linejoin:miter;stroke:rgb(0%,0%,0%);stroke-opacity:1;stroke-miterlimit:4;" d="M 115.125 128.78125 C 115.125 128.78125 122.75 117.375 148.65625 114.34375 C 174.53125 111.3125 182.3125 92.59375 184.0625 88.625 C 184.0625 88.625 167.71875 97.8125 152.78125 99.90625 C 133.25 102.59375 131.8125 109.40625 131.8125 109.40625 C 131.8125 109.40625 140.21875 70.1875 169.78125 62.09375 C 169.78125 62.09375 129.25 70.6875 122.59375 93.6875 C 119.125 105.6875 119.25 119.09375 115.125 128.78125 Z M 115.125 128.78125 " transform="matrix(0.125,0,0,0.125,0,0)"/>
</g>
</g>
<g clip-path="url(#clip9)" clip-rule="nonzero">
<g clip-path="url(#clip10)" clip-rule="nonzero">
<path style=" stroke:none;fill-rule:nonzero;fill:rgb(0%,0%,0%);fill-opacity:1;" d="M 10.890625 21.984375 C 10.890625 21.984375 10.414062 19.574219 10.730469 16.96875 C 11.097656 13.972656 13.222656 11.335938 15.144531 10.203125 C 15.144531 10.203125 13.5625 13.320312 13.585938 15.351562 C 13.601562 16.625 11.511719 20.738281 11.511719 20.738281 C 11.511719 20.738281 13.160156 18.003906 15.085938 16.8125 C 17.011719 15.621094 19.710938 15.226562 19.710938 15.226562 C 19.710938 15.226562 17.585938 18.390625 15.199219 19.308594 C 13.257812 20.058594 12.519531 20.289062 10.890625 21.984375 Z M 10.890625 21.984375 "/>
</g>
</g>
<g clip-path="url(#clip11)" clip-rule="nonzero">
<g clip-path="url(#clip12)" clip-rule="nonzero">
<path style="fill:none;stroke-width:2;stroke-linecap:square;stroke-linejoin:miter;stroke:rgb(0%,0%,0%);stroke-opacity:1;stroke-miterlimit:4;" d="M 87.125 175.875 C 87.125 175.875 83.3125 156.59375 85.84375 135.75 C 88.78125 111.78125 105.78125 90.6875 121.15625 81.625 C 121.15625 81.625 108.5 106.5625 108.6875 122.8125 C 108.8125 133 92.09375 165.90625 92.09375 165.90625 C 92.09375 165.90625 105.28125 144.03125 120.6875 134.5 C 136.09375 124.96875 157.6875 121.8125 157.6875 121.8125 C 157.6875 121.8125 140.6875 147.125 121.59375 154.46875 C 106.0625 160.46875 100.15625 162.3125 87.125 175.875 Z M 87.125 175.875 " transform="matrix(0.125,0,0,0.125,0,0)"/>
</g>
</g>
<g clip-path="url(#clip13)" clip-rule="nonzero">
<g clip-path="url(#clip14)" clip-rule="nonzero">
<path style=" stroke:none;fill-rule:nonzero;fill:rgb(0%,0%,0%);fill-opacity:1;" d="M 18.277344 18.695312 C 18.277344 18.695312 17.464844 20.304688 14.570312 21.195312 C 12.058594 21.96875 10.132812 24.253906 10.132812 24.253906 C 10.332031 21.390625 9.027344 20.800781 9.125 18.109375 C 9.234375 14.964844 11.03125 13.25 11.03125 13.25 C 11.03125 13.25 7.304688 15.257812 6.097656 20.171875 C 5.503906 26.808594 8.109375 25.300781 8.703125 28.816406 C 8.703125 28.816406 9.367188 27.078125 12.941406 25.847656 C 14.296875 25.378906 15.929688 24.148438 16.765625 22.910156 C 18.132812 20.886719 18.277344 18.695312 18.277344 18.695312 Z M 18.277344 18.695312 "/>
</g>
</g>
<g clip-path="url(#clip15)" clip-rule="nonzero">
<g clip-path="url(#clip16)" clip-rule="nonzero">
<path style="fill:none;stroke-width:2;stroke-linecap:square;stroke-linejoin:miter;stroke:rgb(0%,0%,0%);stroke-opacity:1;stroke-miterlimit:4;" d="M 146.21875 149.5625 C 146.21875 149.5625 139.71875 162.4375 116.5625 169.5625 C 96.46875 175.75 81.0625 194.03125 81.0625 194.03125 C 82.65625 171.125 72.21875 166.40625 73 144.875 C 73.875 119.71875 88.25 106 88.25 106 C 88.25 106 58.4375 122.0625 48.78125 161.375 C 44.03125 214.46875 64.875 202.40625 69.625 230.53125 C 69.625 230.53125 74.9375 216.625 103.53125 206.78125 C 114.375 203.03125 127.4375 193.1875 134.125 183.28125 C 145.0625 167.09375 146.21875 149.5625 146.21875 149.5625 Z M 146.21875 149.5625 " transform="matrix(0.125,0,0,0.125,0,0)"/>
</g>
</g>
<g clip-path="url(#clip17)" clip-rule="nonzero">
<g clip-path="url(#clip18)" clip-rule="nonzero">
<path style=" stroke:none;fill-rule:nonzero;fill:rgb(0%,0%,0%);fill-opacity:1;" d="M 6.429688 35.09375 C 6.429688 35.09375 7.074219 30.628906 4.15625 27.847656 C 1.234375 25.070312 4.070312 21.113281 4.070312 21.113281 C 4.070312 21.113281 3.175781 23.664062 5.761719 26.414062 C 8.34375 29.167969 8.253906 31.554688 8.253906 33.464844 C 8.253906 33.464844 7.777344 29.675781 12.210938 27.765625 C 16.648438 25.855469 16.789062 23.863281 16.789062 23.863281 C 16.789062 23.863281 17.039062 27.90625 13.898438 30.039062 C 10.753906 32.171875 9.375 34.980469 9.375 34.980469 Z M 6.429688 35.09375 "/>
</g>
</g>
<g clip-path="url(#clip19)" clip-rule="nonzero">
<g clip-path="url(#clip20)" clip-rule="nonzero">
<path style="fill:none;stroke-width:2;stroke-linecap:square;stroke-linejoin:miter;stroke:rgb(0%,0%,0%);stroke-opacity:1;stroke-miterlimit:4;" d="M 51.4375 280.75 C 51.4375 280.75 56.59375 245.03125 33.25 222.78125 C 9.875 200.5625 32.5625 168.90625 32.5625 168.90625 C 32.5625 168.90625 25.40625 189.3125 46.09375 211.3125 C 66.75 233.34375 66.03125 252.4375 66.03125 267.71875 C 66.03125 267.71875 62.21875 237.40625 97.6875 222.125 C 133.1875 206.84375 134.3125 190.90625 134.3125 190.90625 C 134.3125 190.90625 136.3125 223.25 111.1875 240.3125 C 86.03125 257.375 75 279.84375 75 279.84375 Z M 51.4375 280.75 " transform="matrix(0.125,0,0,0.125,0,0)"/>
</g>
</g>
<g clip-path="url(#clip21)" clip-rule="nonzero">
<g clip-path="url(#clip22)" clip-rule="nonzero">
<path style=" stroke:none;fill-rule:nonzero;fill:rgb(0%,0%,0%);fill-opacity:1;" d="M 45.539062 11.777344 C 45.539062 11.777344 44.203125 9.234375 42.167969 8.308594 C 40.132812 7.382812 37.480469 7.46875 36.765625 6.695312 C 36.050781 5.921875 37.777344 8.96875 40.0625 9.53125 C 42.351562 10.09375 42.757812 10.148438 45.539062 11.777344 Z M 45.539062 11.777344 "/>
</g>
</g>
<g clip-path="url(#clip23)" clip-rule="nonzero">
<g clip-path="url(#clip24)" clip-rule="nonzero">
<path style="fill:none;stroke-width:2;stroke-linecap:square;stroke-linejoin:miter;stroke:rgb(0%,0%,0%);stroke-opacity:1;stroke-miterlimit:4;" d="M 148.67156 94.21875 C 148.67156 94.21875 159.35906 73.875 175.64031 66.46875 C 191.92156 59.0625 213.14031 59.75 218.85906 53.5625 C 224.57781 47.375 210.76531 71.75 192.48406 76.25 C 174.17156 80.75 170.92156 81.1875 148.67156 94.21875 Z M 148.67156 94.21875 " transform="matrix(-0.125,0,0,0.125,64.123007,0)"/>
</g>
</g>
<g clip-path="url(#clip25)" clip-rule="nonzero">
<g clip-path="url(#clip26)" clip-rule="nonzero">
<path style=" stroke:none;fill-rule:nonzero;fill:rgb(0%,0%,0%);fill-opacity:1;" d="M 49.730469 16.097656 C 49.730469 16.097656 48.777344 14.671875 45.542969 14.292969 C 42.304688 13.914062 41.332031 11.574219 41.117188 11.078125 C 41.117188 11.078125 43.15625 12.226562 45.027344 12.488281 C 47.46875 12.824219 47.648438 13.675781 47.648438 13.675781 C 47.648438 13.675781 46.59375 8.773438 42.902344 7.761719 C 42.902344 7.761719 47.964844 8.835938 48.796875 11.710938 C 49.230469 13.210938 49.214844 14.886719 49.730469 16.097656 Z M 49.730469 16.097656 "/>
</g>
</g>
<g clip-path="url(#clip27)" clip-rule="nonzero">
<g clip-path="url(#clip28)" clip-rule="nonzero">
<path style="fill:none;stroke-width:2;stroke-linecap:square;stroke-linejoin:miter;stroke:rgb(0%,0%,0%);stroke-opacity:1;stroke-miterlimit:4;" d="M 115.14031 128.78125 C 115.14031 128.78125 122.76531 117.375 148.64031 114.34375 C 174.54656 111.3125 182.32781 92.59375 184.04656 88.625 C 184.04656 88.625 167.73406 97.8125 152.76531 99.90625 C 133.23406 102.59375 131.79656 109.40625 131.79656 109.40625 C 131.79656 109.40625 140.23406 70.1875 169.76531 62.09375 C 169.76531 62.09375 129.26531 70.6875 122.60906 93.6875 C 119.14031 105.6875 119.26531 119.09375 115.14031 128.78125 Z M 115.14031 128.78125 " transform="matrix(-0.125,0,0,0.125,64.123007,0)"/>
</g>
</g>
<g clip-path="url(#clip29)" clip-rule="nonzero">
<g clip-path="url(#clip30)" clip-rule="nonzero">
<path style=" stroke:none;fill-rule:nonzero;fill:rgb(0%,0%,0%);fill-opacity:1;" d="M 53.230469 21.984375 C 53.230469 21.984375 53.710938 19.574219 53.390625 16.96875 C 53.023438 13.972656 50.902344 11.335938 48.976562 10.203125 C 48.976562 10.203125 50.558594 13.320312 50.535156 15.351562 C 50.519531 16.625 52.613281 20.738281 52.613281 20.738281 C 52.613281 20.738281 50.960938 18.003906 49.035156 16.8125 C 47.109375 15.621094 44.410156 15.226562 44.410156 15.226562 C 44.410156 15.226562 46.539062 18.390625 48.925781 19.308594 C 50.867188 20.058594 51.605469 20.289062 53.230469 21.984375 Z M 53.230469 21.984375 "/>
</g>
</g>
<g clip-path="url(#clip31)" clip-rule="nonzero">
<g clip-path="url(#clip32)" clip-rule="nonzero">
<path style="fill:none;stroke-width:2;stroke-linecap:square;stroke-linejoin:miter;stroke:rgb(0%,0%,0%);stroke-opacity:1;stroke-miterlimit:4;" d="M 87.14031 175.875 C 87.14031 175.875 83.29656 156.59375 85.85906 135.75 C 88.79656 111.78125 105.76531 90.6875 121.17156 81.625 C 121.17156 81.625 108.51531 106.5625 108.70281 122.8125 C 108.82781 133 92.07781 165.90625 92.07781 165.90625 C 92.07781 165.90625 105.29656 144.03125 120.70281 134.5 C 136.10906 124.96875 157.70281 121.8125 157.70281 121.8125 C 157.70281 121.8125 140.67156 147.125 121.57781 154.46875 C 106.04656 160.46875 100.14031 162.3125 87.14031 175.875 Z M 87.14031 175.875 " transform="matrix(-0.125,0,0,0.125,64.123007,0)"/>
</g>
</g>
<g clip-path="url(#clip33)" clip-rule="nonzero">
<g clip-path="url(#clip34)" clip-rule="nonzero">
<path style=" stroke:none;fill-rule:nonzero;fill:rgb(0%,0%,0%);fill-opacity:1;" d="M 45.847656 18.695312 C 45.847656 18.695312 46.65625 20.304688 49.554688 21.195312 C 52.0625 21.96875 53.988281 24.253906 53.988281 24.253906 C 53.792969 21.390625 55.09375 20.800781 55 18.109375 C 54.886719 14.964844 53.089844 13.25 53.089844 13.25 C 53.089844 13.25 56.816406 15.257812 58.023438 20.171875 C 58.617188 26.808594 56.015625 25.300781 55.421875 28.816406 C 55.421875 28.816406 54.753906 27.078125 51.183594 25.847656 C 49.824219 25.378906 48.195312 24.148438 47.359375 22.910156 C 45.992188 20.886719 45.847656 18.695312 45.847656 18.695312 Z M 45.847656 18.695312 "/>
</g>
</g>
<g clip-path="url(#clip35)" clip-rule="nonzero">
<g clip-path="url(#clip36)" clip-rule="nonzero">
<path style="fill:none;stroke-width:2;stroke-linecap:square;stroke-linejoin:miter;stroke:rgb(0%,0%,0%);stroke-opacity:1;stroke-miterlimit:4;" d="M 146.20281 149.5625 C 146.20281 149.5625 139.73406 162.4375 116.54656 169.5625 C 96.48406 175.75 81.07781 194.03125 81.07781 194.03125 C 82.64031 171.125 72.23406 166.40625 72.98406 144.875 C 73.89031 119.71875 88.26531 106 88.26531 106 C 88.26531 106 58.45281 122.0625 48.79656 161.375 C 44.04656 214.46875 64.85906 202.40625 69.60906 230.53125 C 69.60906 230.53125 74.95281 216.625 103.51531 206.78125 C 114.39031 203.03125 127.42156 193.1875 134.10906 183.28125 C 145.04656 167.09375 146.20281 149.5625 146.20281 149.5625 Z M 146.20281 149.5625 " transform="matrix(-0.125,0,0,0.125,64.123007,0)"/>
</g>
</g>
<g clip-path="url(#clip37)" clip-rule="nonzero">
<g clip-path="url(#clip38)" clip-rule="nonzero">
<path style=" stroke:none;fill-rule:nonzero;fill:rgb(0%,0%,0%);fill-opacity:1;" d="M 57.695312 35.09375 C 57.695312 35.09375 57.046875 30.628906 59.96875 27.847656 C 62.886719 25.070312 60.050781 21.113281 60.050781 21.113281 C 60.050781 21.113281 60.945312 23.664062 58.363281 26.414062 C 55.78125 29.167969 55.871094 31.554688 55.871094 33.464844 C 55.871094 33.464844 56.347656 29.675781 51.910156 27.765625 C 47.476562 25.855469 47.335938 23.863281 47.335938 23.863281 C 47.335938 23.863281 47.082031 27.90625 50.226562 30.039062 C 53.371094 32.171875 54.746094 34.980469 54.746094 34.980469 Z M 57.695312 35.09375 "/>
</g>
</g>
<g clip-path="url(#clip39)" clip-rule="nonzero">
<g clip-path="url(#clip40)" clip-rule="nonzero">
<path style="fill:none;stroke-width:2;stroke-linecap:square;stroke-linejoin:miter;stroke:rgb(0%,0%,0%);stroke-opacity:1;stroke-miterlimit:4;" d="M 51.42156 280.75 C 51.42156 280.75 56.60906 245.03125 33.23406 222.78125 C 9.89031 200.5625 32.57781 168.90625 32.57781 168.90625 C 32.57781 168.90625 25.42156 189.3125 46.07781 211.3125 C 66.73406 233.34375 66.01531 252.4375 66.01531 267.71875 C 66.01531 267.71875 62.20281 237.40625 97.70281 222.125 C 133.17156 206.84375 134.29656 190.90625 134.29656 190.90625 C 134.29656 190.90625 136.32781 223.25 111.17156 240.3125 C 86.01531 257.375 75.01531 279.84375 75.01531 279.84375 Z M 51.42156 280.75 " transform="matrix(-0.125,0,0,0.125,64.123007,0)"/>
</g>
</g>
<path style=" stroke:none;fill-rule:nonzero;fill:rgb(0%,0%,0%);fill-opacity:1;" d="M 1.726562 27.613281 C 1.726562 27.613281 1.472656 29.714844 1.773438 31.753906 C 2.019531 33.4375 2.636719 35.074219 2.835938 35.683594 C 2.835938 35.683594 6.816406 36.183594 9.675781 36.042969 C 12.628906 35.898438 16.398438 36.777344 16.398438 36.777344 C 16.398438 36.777344 15.046875 35.382812 14.988281 33.121094 C 14.929688 30.859375 15.007812 30.015625 15.007812 30.015625 L 8.589844 29.152344 Z M 1.726562 27.613281 "/>
<path style=" stroke:none;fill-rule:nonzero;fill:rgb(0%,0%,0%);fill-opacity:1;" d="M 19.183594 42.269531 C 19.183594 42.269531 17.945312 43.195312 12.425781 43.039062 C 11.167969 43 6.96875 43.710938 6.96875 43.710938 C 5.855469 43.613281 5.210938 42.175781 4.960938 41.09375 C 4.566406 39.34375 3.890625 36.785156 3.890625 36.785156 C 3.890625 36.785156 6.132812 37.117188 9.191406 36.917969 C 12.203125 36.722656 16.574219 37.101562 17.328125 37.933594 C 17.328125 37.933594 17.863281 39 18.242188 39.984375 C 19.09375 42.207031 19.183594 42.269531 19.183594 42.269531 Z M 19.183594 42.269531 "/>
<path style=" stroke:none;fill-rule:nonzero;fill:rgb(0%,0%,0%);fill-opacity:1;" d="M 22.90625 47.527344 C 22.90625 47.527344 20.269531 49.074219 17.855469 49.691406 C 15.441406 50.308594 12.660156 51.910156 12.660156 51.910156 C 12.660156 51.910156 10.976562 50.082031 10.414062 48.285156 C 9.75 46.15625 8.199219 44.496094 8.199219 44.496094 C 8.199219 44.496094 10.710938 43.777344 13.027344 43.878906 C 15.609375 43.992188 17.25 43.84375 18.976562 43.207031 C 18.976562 43.207031 20.4375 44.75 20.800781 45.394531 C 21.167969 46.039062 22.90625 47.527344 22.90625 47.527344 Z M 22.90625 47.527344 "/>
<path style=" stroke:none;fill-rule:nonzero;fill:rgb(0%,0%,0%);fill-opacity:1;" d="M 26.671875 53.480469 C 26.671875 53.480469 26.082031 52.636719 25.714844 51.261719 C 25.351562 49.886719 23.160156 48.820312 23.160156 48.820312 C 23.160156 48.820312 19.484375 50.589844 18.527344 50.757812 C 17.574219 50.925781 15.074219 51.738281 14.765625 52.273438 C 14.765625 52.273438 15.691406 52.777344 16.453125 53.929688 C 17.210938 55.082031 20.464844 54.015625 20.464844 54.015625 C 20.464844 54.015625 26.25 52.863281 26.671875 53.480469 Z M 26.671875 53.480469 "/>
<path style=" stroke:none;fill-rule:nonzero;fill:rgb(0%,0%,0%);fill-opacity:1;" d="M 62.820312 27.613281 C 62.820312 27.613281 63.074219 29.714844 62.773438 31.753906 C 62.527344 33.4375 61.910156 35.074219 61.710938 35.683594 C 61.710938 35.683594 57.730469 36.183594 54.867188 36.042969 C 51.917969 35.898438 48.144531 36.777344 48.144531 36.777344 C 48.144531 36.777344 49.5 35.382812 49.558594 33.121094 C 49.617188 30.859375 49.539062 30.015625 49.539062 30.015625 L 55.957031 29.152344 Z M 62.820312 27.613281 "/>
<path style=" stroke:none;fill-rule:nonzero;fill:rgb(0%,0%,0%);fill-opacity:1;" d="M 45.363281 42.269531 C 45.363281 42.269531 46.601562 43.195312 52.121094 43.039062 C 53.378906 43 57.578125 43.710938 57.578125 43.710938 C 58.691406 43.613281 59.335938 42.175781 59.582031 41.09375 C 59.980469 39.34375 60.65625 36.785156 60.65625 36.785156 C 60.65625 36.785156 58.414062 37.117188 55.355469 36.917969 C 52.34375 36.722656 47.972656 37.101562 47.214844 37.933594 C 47.214844 37.933594 46.683594 39 46.304688 39.984375 C 45.453125 42.207031 45.363281 42.269531 45.363281 42.269531 Z M 45.363281 42.269531 "/>
<path style=" stroke:none;fill-rule:nonzero;fill:rgb(0%,0%,0%);fill-opacity:1;" d="M 41.636719 47.527344 C 41.636719 47.527344 44.277344 49.074219 46.691406 49.691406 C 49.105469 50.308594 51.886719 51.910156 51.886719 51.910156 C 51.886719 51.910156 53.570312 50.082031 54.132812 48.285156 C 54.796875 46.15625 56.347656 44.496094 56.347656 44.496094 C 56.347656 44.496094 53.835938 43.777344 51.519531 43.878906 C 48.9375 43.992188 47.296875 43.84375 45.570312 43.207031 C 45.570312 43.207031 44.109375 44.75 43.742188 45.394531 C 43.378906 46.039062 41.636719 47.527344 41.636719 47.527344 Z M 41.636719 47.527344 "/>
<path style=" stroke:none;fill-rule:nonzero;fill:rgb(0%,0%,0%);fill-opacity:1;" d="M 37.875 53.480469 C 37.875 53.480469 38.464844 52.636719 38.832031 51.261719 C 39.195312 49.886719 41.386719 48.820312 41.386719 48.820312 C 41.386719 48.820312 45.0625 50.589844 46.019531 50.757812 C 46.972656 50.925781 49.472656 51.738281 49.78125 52.273438 C 49.78125 52.273438 48.851562 52.777344 48.09375 53.929688 C 47.335938 55.082031 44.082031 54.015625 44.082031 54.015625 C 44.082031 54.015625 38.296875 52.863281 37.875 53.480469 Z M 37.875 53.480469 "/>
<path style="fill:none;stroke-width:5.681;stroke-linecap:butt;stroke-linejoin:miter;stroke:rgb(0%,0%,0%);stroke-opacity:1;stroke-miterlimit:4;" d="M 370.125 221.90625 C 370.125 158.125 319.03125 106.46875 256.03125 106.46875 C 193.03125 106.46875 141.9375 158.125 141.9375 221.90625 C 141.9375 285.65625 193.03125 337.34375 256.03125 337.34375 C 319.03125 337.34375 370.125 285.65625 370.125 221.90625 Z M 370.125 221.90625 " transform="matrix(0.125,0,0,0.125,0,0)"/>
<path style="fill:none;stroke-width:5.681;stroke-linecap:butt;stroke-linejoin:miter;stroke:rgb(0%,0%,0%);stroke-opacity:1;stroke-miterlimit:4;" d="M 255.59375 106.46875 C 255.59375 338.6875 256.46875 338.6875 256.46875 338.6875 " transform="matrix(0.125,0,0,0.125,0,0)"/>
<path style="fill:none;stroke-width:5.681;stroke-linecap:butt;stroke-linejoin:miter;stroke:rgb(0%,0%,0%);stroke-opacity:1;stroke-miterlimit:4;" d="M 142.375 222.34375 L 370.125 222.34375 L 370.5625 226.375 " transform="matrix(0.125,0,0,0.125,0,0)"/>
<path style="fill:none;stroke-width:5.681;stroke-linecap:butt;stroke-linejoin:miter;stroke:rgb(0%,0%,0%);stroke-opacity:1;stroke-miterlimit:4;" d="M 165.75 295.125 C 165.75 295.125 192.96875 265.46875 255.59375 265.46875 C 318.21875 265.46875 343.1875 295.125 343.1875 295.125 L 343.1875 296.46875 " transform="matrix(0.125,0,0,0.125,0,0)"/>
<path style="fill:none;stroke-width:5.681;stroke-linecap:butt;stroke-linejoin:miter;stroke:rgb(0%,0%,0%);stroke-opacity:1;stroke-miterlimit:4;" d="M 165.75 146.875 C 165.75 146.875 192.96875 176.5 255.59375 176.5 C 318.21875 176.5 343.1875 146.875 343.1875 146.875 L 343.1875 145.5 " transform="matrix(0.125,0,0,0.125,0,0)"/>
<path style="fill:none;stroke-width:5.681;stroke-linecap:butt;stroke-linejoin:miter;stroke:rgb(0%,0%,0%);stroke-opacity:1;stroke-miterlimit:4;" d="M 255.59375 106.90625 C 255.59375 106.90625 191.34375 136.65625 191.34375 221.90625 C 191.34375 307.125 255.59375 336.875 255.59375 336.875 " transform="matrix(0.125,0,0,0.125,0,0)"/>
<path style="fill:none;stroke-width:5.681;stroke-linecap:butt;stroke-linejoin:miter;stroke:rgb(0%,0%,0%);stroke-opacity:1;stroke-miterlimit:4;" d="M 254.375 107.34375 C 254.375 107.34375 318.625 137.125 318.625 222.34375 C 318.625 307.5625 254.375 337.34375 254.375 337.34375 " transform="matrix(0.125,0,0,0.125,0,0)"/>
<path style="fill:none;stroke-width:34.9769;stroke-linecap:butt;stroke-linejoin:miter;stroke:rgb(0%,0%,0%);stroke-opacity:1;stroke-miterlimit:4;" d="M 255.59375 157.21875 L 255.59375 270.40625 " transform="matrix(0.125,0,0,0.125,0,0)"/>
<path style="fill-rule:nonzero;fill:rgb(0%,0%,0%);fill-opacity:1;stroke-width:2.49024;stroke-linecap:square;stroke-linejoin:miter;stroke:rgb(0%,0%,0%);stroke-opacity:1;stroke-miterlimit:4;" d="M 254.78125 247.4375 L 297.125 247.4375 L 255.8125 288.4375 L 214.5 247.4375 L 259.09375 247.4375 " transform="matrix(0.125,0,0,0.125,0,0)"/>
<path style="fill-rule:nonzero;fill:rgb(0%,0%,0%);fill-opacity:1;stroke-width:11.181;stroke-linecap:square;stroke-linejoin:miter;stroke:rgb(0%,0%,0%);stroke-opacity:1;stroke-miterlimit:4;" d="M 201.6875 293.09375 C 202.59375 293.09375 307.6875 292.40625 307.6875 292.40625 " transform="matrix(0.125,0,0,0.125,0,0)"/>
<path style=" stroke:none;fill-rule:nonzero;fill:rgb(0%,0%,0%);fill-opacity:1;" d="M 31.96875 4.3125 L 32.957031 7.566406 L 36.351562 7.40625 L 33.5625 9.347656 L 34.761719 12.53125 L 32.054688 10.476562 L 29.398438 12.601562 L 30.511719 9.390625 L 27.671875 7.523438 L 31.070312 7.589844 Z M 31.96875 4.3125 "/>
</g>
</svg>
